<svg width="38" height="37" viewBox="0 0 38 37" fill="none" xmlns="http://www.w3.org/2000/svg">
<path fill-rule="evenodd" clip-rule="evenodd" d="M21.071 21.7375C21.356 22.089 21.698 22.4867 21.698 22.4867C23.7975 22.422 24.605 21.0807 24.605 21.0807C24.605 18.1022 23.237 15.688 23.237 15.688C21.869 14.689 20.5675 14.7167 20.5675 14.7167L20.4345 14.8647C22.0495 15.3457 22.8 16.0395 22.8 16.0395C21.812 15.5123 20.843 15.2533 19.9405 15.1515C19.2565 15.0775 18.601 15.096 18.0215 15.17C17.9717 15.17 17.9292 15.177 17.8813 15.185L17.86 15.1885C17.5275 15.2162 16.72 15.3365 15.7035 15.7713C15.352 15.9285 15.143 16.0395 15.143 16.0395C15.143 16.0395 15.9315 15.3088 17.6415 14.8278L17.5465 14.7167C17.5465 14.7167 16.245 14.689 14.877 15.688C14.877 15.688 13.509 18.1022 13.509 21.0807C13.509 21.0807 14.307 22.422 16.4065 22.4867C16.4065 22.4867 16.758 22.0705 17.043 21.719C15.8365 21.3675 15.3805 20.6275 15.3805 20.6275C15.3805 20.6275 15.4755 20.6922 15.6465 20.7847C15.656 20.794 15.6655 20.8033 15.6845 20.8125C15.6988 20.8218 15.713 20.8287 15.7273 20.8356C15.7415 20.8426 15.7558 20.8495 15.77 20.8587C16.0075 20.9883 16.245 21.09 16.4635 21.1732C16.853 21.3212 17.3185 21.4692 17.86 21.571C18.5725 21.7005 19.4085 21.7467 20.3205 21.5802C20.767 21.5063 21.223 21.3767 21.698 21.1825C22.0305 21.0623 22.401 20.8865 22.7905 20.6367C22.7905 20.6367 22.3155 21.3953 21.071 21.7375ZM16.3115 19.1938C16.3115 18.6295 16.739 18.167 17.2805 18.167C17.822 18.167 18.259 18.6295 18.2495 19.1938C18.2495 19.758 17.822 20.2205 17.2805 20.2205C16.7485 20.2205 16.3115 19.758 16.3115 19.1938ZM19.779 19.1938C19.779 18.6295 20.2065 18.167 20.748 18.167C21.2895 18.167 21.717 18.6295 21.717 19.1938C21.717 19.758 21.2895 20.2205 20.748 20.2205C20.216 20.2205 19.779 19.758 19.779 19.1938Z" fill="white"/>
<path fill-rule="evenodd" clip-rule="evenodd" d="M32.0625 0C35.3417 0 38 2.58835 38 5.78125V31.2188C38 34.4116 35.3417 37 32.0625 37H5.9375C2.65831 37 0 34.4116 0 31.2188V5.78125C0 2.58835 2.65831 0 5.9375 0H32.0625ZM12.635 10.4062H25.365C26.4385 10.4062 27.3125 11.2572 27.3125 12.3117V28.9062L25.27 27.1488L24.1205 26.1127L22.9045 25.012L23.408 26.7232H12.635C11.5615 26.7232 10.6875 25.8722 10.6875 24.8178V12.3117C10.6875 11.2572 11.5615 10.4062 12.635 10.4062Z" fill="white"/>
</svg>
