<svg width="38" height="37" viewBox="0 0 38 37" fill="none" xmlns="http://www.w3.org/2000/svg">
<path fill-rule="evenodd" clip-rule="evenodd" d="M5.9375 0H32.0625C35.3417 0 38 2.58836 38 5.78125V31.2188C38 34.4116 35.3417 37 32.0625 37H5.9375C2.65832 37 0 34.4116 0 31.2188V5.78125C0 2.58836 2.65832 0 5.9375 0ZM11.5188 13.5281C11.6375 13.6437 11.7562 13.875 11.7562 14.1062V22.2C11.875 22.5469 11.7562 22.7781 11.5188 23.0094L9.5 25.3219V25.6687H15.0813V25.3219L13.0625 23.0094C12.9437 22.7781 12.825 22.5469 12.825 22.2V15.1469L17.8125 25.6687H18.2875L22.5625 15.1469V23.5875C22.5625 23.8187 22.5625 23.9344 22.4437 24.05L20.9 25.5531V25.9H28.3812V25.5531L26.9563 24.1656C26.8375 24.05 26.8375 23.8187 26.8375 23.7031V13.2969C26.7188 13.0656 26.8375 12.95 26.9563 12.8344L28.5 11.4469V11.1H23.275L19.475 20.2344L15.2 11.1H9.73751V11.4469L11.5188 13.5281Z" fill="white"/>
</svg>
