<svg width="38" height="37" viewBox="0 0 38 37" fill="none" xmlns="http://www.w3.org/2000/svg">
<path fill-rule="evenodd" clip-rule="evenodd" d="M5.9375 0H32.0625C35.3417 0 38 2.58835 38 5.78125V31.2188C38 34.4116 35.3417 37 32.0625 37H5.9375C2.65831 37 0 34.4116 0 31.2188V5.78125C0 2.58835 2.65831 0 5.9375 0ZM19.8216 13.8835C18.1199 14.5727 14.7189 15.9991 9.61865 18.1627C8.79045 18.4834 8.3566 18.7971 8.3171 19.1039C8.25036 19.6223 8.91711 19.8264 9.82506 20.1044C9.94857 20.1422 10.0765 20.1814 10.2077 20.2229C11.101 20.5057 12.3026 20.8364 12.9273 20.8496C13.494 20.8615 14.1264 20.634 14.8246 20.1672C19.59 17.0351 22.0498 15.452 22.2043 15.4179C22.3132 15.3938 22.4642 15.3635 22.5665 15.4521C22.6688 15.5406 22.6588 15.7082 22.6479 15.7532C22.5819 16.0274 19.9646 18.3966 18.6102 19.6227C18.1879 20.0049 17.8884 20.276 17.8272 20.338C17.69 20.4767 17.5502 20.6079 17.4159 20.734C16.586 21.5129 15.9637 22.0971 17.4503 23.051C18.1648 23.5094 18.7365 23.8885 19.3068 24.2667C19.9297 24.6797 20.5509 25.0916 21.3547 25.6047C21.5595 25.7354 21.7551 25.8711 21.9456 26.0034C22.6705 26.5065 23.3217 26.9586 24.1263 26.8865C24.5938 26.8446 25.0767 26.4166 25.3219 25.14C25.9015 22.1231 27.0408 15.5864 27.3041 12.8927C27.3271 12.6567 27.2981 12.3547 27.2748 12.2221C27.2515 12.0895 27.2028 11.9006 27.0258 11.7608C26.8162 11.5952 26.4926 11.5602 26.3479 11.5626C25.6898 11.574 24.6802 11.9158 19.8216 13.8835Z" fill="white"/>
</svg>
