<svg width="216" height="214" viewBox="0 0 216 214" fill="none" xmlns="http://www.w3.org/2000/svg">
<path d="M85.7227 0.216614C85.5181 0.307556 84.5177 0.534912 83.4718 0.671326C76.8556 1.58078 69.0572 4.6274 62.9867 8.69714C60.804 10.1523 57.9848 12.5168 55.3474 15.0405C54.1878 16.1773 53.0965 17.0413 52.8464 17.0413C52.6191 17.0185 52.0052 16.8594 51.505 16.6775C50.4364 16.291 43.9339 15.4497 41.9559 15.4497C40.2052 15.4497 35.2942 16.2455 34.1801 16.7229C31.0653 18.0189 28.3597 20.0424 26.7227 22.2705C25.4723 23.9757 24.199 26.7268 23.5397 29.205C22.9713 31.2513 22.9031 31.8879 22.8804 35.3438C22.8804 38.6177 22.9486 39.5272 23.3805 41.3688C24.3582 45.484 26.0179 49.2355 28.0869 52.1684C29.4283 54.0327 32.7933 57.2613 34.4757 58.2617C36.2946 59.353 38.5682 60.1942 40.1597 60.3761C41.2738 60.5125 41.5011 60.6262 41.8649 61.2401C42.115 61.6266 42.4561 62.5133 42.6607 63.1954C44.8206 70.721 48.663 77.519 54.0742 83.4077C55.0973 84.5217 55.9385 85.5221 55.9385 85.6358C55.9385 85.8859 55.2792 86.2952 52.8009 87.5684C50.0044 89.0007 44.6614 92.0474 41.8422 93.8435C29.8376 101.437 18.3786 112.032 12.4445 121.013C8.62488 126.788 7.48808 128.743 5.71467 132.426C5.05532 133.791 4.44145 135.109 4.32777 135.314C4.07767 135.746 2.73625 139.247 2.21332 140.725C1.48577 142.84 0.91737 144.977 0.712746 146.341C0.599065 147.114 0.371705 147.955 0.258025 148.205C-0.128487 148.91 -0.0602787 156.277 0.326233 157.05C0.485385 157.391 0.712746 158.073 0.80369 158.573C1.03105 159.96 2.41795 162.415 3.66843 163.666C4.2823 164.302 5.44183 165.121 6.3058 165.553L7.85185 166.303H11.4896C15.2865 166.303 15.8777 166.189 19.1062 164.984C20.5158 164.462 22.7667 163.234 23.6988 162.506L24.3355 162.006L26.0861 162.802C27.7686 163.529 27.996 163.575 30.4742 163.575C32.7933 163.575 33.2025 163.507 34.1574 163.029C36.4083 161.892 38.2044 159.21 38.2044 157.027C38.2044 155.413 36.8175 151.457 35.6353 149.751C35.4079 149.388 35.4761 149.251 36.1809 148.615C38.1362 146.841 44.6614 141.862 45.0025 141.862C45.3663 141.862 45.3663 141.976 45.1162 143.158C44.1158 147.728 43.752 150.32 43.1836 156.299C42.547 163.325 43.8884 172.737 46.5258 179.604C47.2306 181.423 49.4815 185.924 50.0044 186.538C50.209 186.788 50.6865 187.448 51.073 188.016C52.1416 189.653 58.7123 196.246 62.2819 199.248C64.078 200.748 66.3289 202.658 67.2838 203.454C69.7847 205.546 71.0352 206.455 73.3316 207.865C76.9921 210.07 82.2895 212.116 85.268 212.457C86.0865 212.548 86.8822 212.73 87.0641 212.889C87.6098 213.321 93.1119 213.367 94.1123 212.957C94.567 212.753 95.6356 212.48 96.4768 212.344C97.9774 212.116 98.4776 211.934 100.865 210.866C103.275 209.774 106.14 207.592 108.277 205.182C109.323 204.022 111.528 200.725 112.074 199.498C113.279 196.86 114.825 192.086 114.825 191.04C114.825 190.449 115.916 189.539 116.416 189.699C117.007 189.88 121.032 190.994 122.214 191.313C122.851 191.472 124.328 191.881 125.511 192.222C127.989 192.927 131.627 193.882 132.786 194.155C133.218 194.246 134.764 194.655 136.197 195.064C141.744 196.61 143.427 197.019 149.156 198.293C152.362 198.998 152.612 199.02 157.91 199.02C162.843 199.02 163.571 198.975 165.526 198.497C176.144 195.905 183.488 187.834 186.875 175.057C187.398 173.101 188.035 168.031 188.035 165.917C188.035 163.939 187.444 159.437 186.875 157.095C185.42 151.184 182.328 146.091 178.19 142.817C176.553 141.521 175.325 140.839 173.256 140.134C170.392 139.111 164.389 139.52 159.046 141.089C154.385 142.453 149.815 144.249 145.678 146.318C143.609 147.341 143.722 147.614 143.654 141.453C143.609 138.497 143.609 135.86 143.654 135.61C143.722 135.178 143.836 135.155 145.359 135.314C148.77 135.632 162.388 135.791 164.844 135.519C173.12 134.609 175.439 134.109 180.304 132.154C184.647 130.403 188.194 127.265 190.081 123.491C191.491 120.695 192.195 117.08 192.036 113.601C191.923 111.146 191.968 110.873 192.355 110.486C192.605 110.236 193.037 110.032 193.309 110.032C193.969 110.032 198.766 107.599 200.812 106.212C205.564 102.983 209.452 98.5953 212.271 93.2524C213.499 90.9333 215 86.568 215.341 84.2944C215.477 83.3849 215.682 82.5437 215.795 82.4073C216.068 82.1345 216.068 72.2216 215.795 71.926C215.659 71.8123 215.454 70.9938 215.318 70.1299C214.158 62.7861 209.179 54.7148 202.699 49.6902C198.561 46.4844 195.424 44.9384 189.967 43.4605C187.762 42.8694 187.512 42.8466 181.896 42.8466C176.28 42.8466 176.03 42.8694 173.938 43.4605C167.049 45.4385 162.934 47.7803 158.228 52.4867C153.203 57.5341 150.361 62.6952 148.656 69.9025C148.178 71.9487 148.133 72.699 148.133 77.4054C148.133 82.0435 148.201 82.8848 148.656 84.7946C149.656 88.9553 151.498 93.3206 153.59 96.4809C154.795 98.277 154.795 98.7772 153.658 98.4134C153.249 98.277 152.748 98.0951 152.544 97.9815C152.362 97.8905 151.43 97.504 150.498 97.1175C145.768 95.2077 130.331 87.4092 128.239 85.8859L127.716 85.4994L130.035 82.9302C132.559 80.1337 135.469 75.9503 137.288 72.4716C139.266 68.743 140.698 64.605 141.994 59.0347C142.54 56.6247 142.836 51.0316 142.631 46.8254C142.54 44.7565 142.449 42.9148 142.449 42.733C142.449 42.5511 143.268 41.9599 144.336 41.3688C146.564 40.1411 147.815 39.1179 149.088 37.4809C150.498 35.6393 151.566 33.3203 152.316 30.3873C153.18 27.0906 153.294 23.6802 152.589 21.3384C152.362 20.5426 152.089 19.5877 152.021 19.2466C151.43 16.7002 148.838 13.3353 146.496 12.1075C143.813 10.6979 142.972 10.5615 137.22 10.5615C132.582 10.5615 131.74 10.6297 129.717 11.0844C128.466 11.3573 127.102 11.6983 126.693 11.8347C126.284 11.9711 125.715 12.0166 125.442 11.9484C125.01 11.8575 123.192 10.5842 120.054 8.19695C118.781 7.24203 112.256 4.03625 109.8 3.14955C106.549 1.99002 102.775 1.01237 100.274 0.671326C99.2279 0.534912 98.182 0.307556 97.9774 0.193878C97.4545 -0.078949 86.1774 -0.0562134 85.7227 0.216614ZM101.183 3.69522C104.23 4.3773 106.481 4.99118 108.231 5.62778C120.213 10.0158 129.444 18.1781 135.083 29.3187C136.401 31.9106 136.606 32.4563 137.697 35.6393C139.107 39.8682 140.289 47.7803 139.994 51.1225C139.289 58.8528 138.948 60.6035 136.879 66.4921C136.037 68.8566 133.582 73.5175 131.877 75.9503C129.33 79.588 126.829 82.3391 123.214 85.4767C120.1 88.205 114.757 91.6154 113.665 91.6154C113.097 91.6154 113.211 91.1152 113.824 90.9333C114.279 90.8196 114.461 90.6832 116.939 88.8643C120.009 86.5907 122.6 83.1348 123.76 79.7244C124.283 78.2693 124.374 77.5872 124.374 75.632C124.351 72.8127 124.147 71.8351 123.078 69.6297C121.441 66.3329 117.849 63.3318 113.688 61.763C106.39 59.0119 97.6591 59.694 90.088 63.5819C87.0186 65.1507 84.6996 66.9241 82.7897 69.1522C80.0159 72.4034 78.9246 75.0181 78.5154 79.4061C78.288 81.9298 79.6067 85.4767 81.7666 88.1368C82.6988 89.2508 84.9497 91.0697 86.5184 91.9337C91.7477 94.7984 98.7504 95.5487 106.003 94.0027C107.231 93.7298 107.868 93.6843 108.163 93.8435C108.527 94.0709 108.504 94.1163 107.936 94.321C107.572 94.4574 107.072 94.5711 106.776 94.5711C106.503 94.5711 105.89 94.7757 105.389 95.0258C104.889 95.2759 104.298 95.4805 104.025 95.4805C103.775 95.4805 103.002 95.6396 102.32 95.8443C101.229 96.1398 98.5458 96.4809 93.4529 96.9811C91.5886 97.163 84.4722 96.5036 81.8576 95.9125C75.4233 94.4574 72.3766 93.2296 66.0333 89.5691C62.5547 87.5684 56.4614 82.1572 53.8468 78.7241C50.4137 74.2905 47.8218 69.4932 46.1848 64.6505C45.0025 61.1491 44.9798 60.5807 46.0256 60.2397C46.9123 59.9441 47.2079 59.1256 46.7532 58.1934C46.4803 57.625 46.4576 57.625 43.9566 57.6933C39.1139 57.8069 36.1582 56.5792 32.6568 52.9642C28.7462 48.9171 26.4272 43.8015 25.9042 38.1403C25.2904 31.2285 26.7 26.3858 30.4287 22.6343C32.4295 20.6335 34.2256 19.6559 37.3177 18.8601C39.0002 18.4282 39.6595 18.3827 42.979 18.4736C48.1855 18.61 52.5508 19.5422 57.8938 21.6567C59.3489 22.2023 60.1901 22.0659 60.3948 21.202C60.6676 20.1561 60.2584 19.4967 58.9624 18.9738C58.3258 18.7237 57.5528 18.3599 57.2799 18.1553L56.7343 17.7688L57.189 17.2686C57.8029 16.5638 61.9636 12.9942 63.214 12.0848C68.8526 7.94685 75.6961 5.01392 82.8807 3.64975C86.5184 2.96767 86.2456 2.9904 92.6572 3.05861C98.0001 3.12682 98.8186 3.17229 101.183 3.69522ZM141.721 13.4035C144.518 13.8127 147.178 15.6544 148.338 18.0189C149.702 20.8154 149.838 21.4293 149.838 25.3854C149.838 28.7048 149.793 29.2505 149.27 30.842C148.178 34.1842 146.473 36.617 144.131 38.2085C142.267 39.459 141.903 39.368 141.267 37.5037C140.539 35.412 140.585 34.6617 141.562 33.1838C141.994 32.5245 142.631 31.3422 142.972 30.5919C143.495 29.3642 143.563 28.9095 143.586 26.7041C143.586 23.7939 143.29 23.0208 141.38 20.9973C140.198 19.7468 138.97 19.0875 136.651 18.4964C135.424 18.1781 135.151 18.1781 133.9 18.4964C133.15 18.701 132.331 18.8601 132.127 18.8601C131.536 18.8601 128.216 14.9723 128.512 14.6085C128.898 14.131 131.013 13.5627 133.014 13.4035C135.992 13.1534 140.016 13.1534 141.721 13.4035ZM137.674 21.7476C139.039 22.4524 140.426 24.0667 140.812 25.4081C141.13 26.454 141.13 26.6813 140.721 28.2047C140.448 29.2505 140.062 30.0917 139.721 30.4328C139.425 30.7511 139.13 30.9557 139.084 30.8875C139.039 30.842 138.47 29.6598 137.788 28.2956C137.129 26.9087 136.037 24.9079 135.355 23.8166C134.696 22.748 134.15 21.7021 134.15 21.5202C134.15 20.8154 136.128 20.9519 137.674 21.7476ZM186.784 45.8251C189.376 46.2116 191.195 46.7345 191.354 47.1665C191.513 47.553 191.013 49.3264 190.081 51.8274C189.672 52.896 189.262 54.0555 189.172 54.442C188.876 55.3969 188.057 57.7615 187.807 58.3071C187.557 58.83 186.807 61.0127 186.352 62.5133C186.17 63.0817 185.761 64.2412 185.42 65.1279C185.079 65.9919 184.67 67.1742 184.488 67.7426C184.329 68.311 183.874 69.6297 183.488 70.6982C183.101 71.7668 182.646 73.0401 182.464 73.5403C182.305 74.0404 181.691 75.7684 181.123 77.4054C180.532 79.0196 179.713 81.3842 179.281 82.6346C178.849 83.8851 178.19 85.7722 177.803 86.8408C177.44 87.9094 176.758 89.7965 176.326 91.047C175.894 92.2975 175.03 94.7984 174.393 96.6173C173.757 98.4362 173.097 100.323 172.915 100.823C172.756 101.324 172.21 102.847 171.71 104.234C170.664 107.167 170.801 107.121 167.936 105.689C165.253 104.348 162.775 102.506 160.183 99.914C156.591 96.3672 154.34 92.7749 155.318 92.1838C155.454 92.0928 156.295 91.9337 157.182 91.82C159.205 91.5699 160.547 91.1379 163.025 89.9784C165.776 88.6824 167.163 87.7048 169.573 85.3857C171.392 83.635 174.166 80.1564 174.166 79.6562C174.166 79.5653 174.302 79.3152 174.461 79.1333C174.893 78.6331 176.894 74.0404 176.894 73.5857C176.894 73.3811 177.121 72.5626 177.394 71.7896C177.872 70.4709 177.917 69.9707 177.917 65.3553C177.917 60.558 177.894 60.2624 177.281 58.3071C176.94 57.1703 176.576 56.0563 176.439 55.8062C176.326 55.5561 176.076 54.9877 175.871 54.5557C175.075 52.7595 173.415 50.1676 172.324 48.9854C171.96 48.5988 171.642 48.0532 171.619 47.7576C171.551 47.2574 171.71 47.1437 173.256 46.6663C174.188 46.3707 176.303 45.9387 177.917 45.6886C181.123 45.2112 182.919 45.2567 186.784 45.8251ZM197.675 49.7129C199.926 51.0771 201.426 52.2593 203.632 54.3965C205.61 56.3064 208.497 59.9669 208.497 60.5807C208.497 60.9445 207.701 61.4674 206.565 61.8312C204.95 62.3314 201.381 64.1048 199.744 65.1961C195.31 68.1745 191.604 73.1765 189.99 78.3375C189.058 81.316 188.649 84.0215 188.558 87.773C188.467 90.8423 188.535 91.7973 189.035 94.7075C189.876 99.573 190.672 102.301 192.15 105.348L192.809 106.735L192.286 107.19C191.968 107.485 190.74 107.894 189.012 108.304C186.352 108.917 186.148 108.94 181.305 108.827C176.257 108.736 174.825 108.508 174.052 107.735C173.734 107.44 173.757 107.258 174.166 106.03C174.416 105.302 174.984 103.665 175.416 102.415C175.848 101.164 176.508 99.2774 176.894 98.2088C177.258 97.1402 177.94 95.2531 178.372 94.0027C178.804 92.7522 179.622 90.3876 180.191 88.7734C180.782 87.1364 181.441 85.2493 181.669 84.5672C181.896 83.8851 182.555 81.9753 183.146 80.3611C183.715 78.7241 184.442 76.6323 184.761 75.7002C185.079 74.768 185.579 73.3811 185.875 72.6308C186.42 71.1757 186.966 69.6069 187.466 67.9699C187.625 67.4015 188.035 66.2193 188.353 65.3553C188.694 64.4686 189.308 62.6952 189.763 61.3765C190.195 60.0578 190.649 58.7846 190.786 58.5345C190.899 58.2844 191.127 57.625 191.309 57.0566C191.582 56.1699 192.968 52.2821 194.082 49.1673L194.424 48.2123L195.356 48.5534C195.856 48.7125 196.902 49.2582 197.675 49.7129ZM169.096 49.8266C172.324 52.805 174.643 57.8297 175.075 62.7179C175.78 70.7892 173.052 78.1329 167.322 83.5213C163.98 86.6589 161.183 88.0913 156.659 89.0007C153.021 89.7283 152.908 89.6373 151.748 85.1356C151.134 82.7256 151.111 82.43 151.089 77.178C151.089 71.9487 151.111 71.6304 151.703 69.4478C153.385 63.2408 155.863 58.9437 160.274 54.5329C162.73 52.0775 166.936 48.8944 167.754 48.8717C167.913 48.8717 168.504 49.3037 169.096 49.8266ZM111.005 63.8774C113.483 64.6959 115.939 65.901 116.939 66.7877C119.076 68.6975 119.986 69.8115 120.804 71.5167C121.441 72.8127 121.464 72.9946 121.373 75.7002C121.305 78.5422 121.305 78.5422 120.304 80.5657C119.463 82.2254 118.917 82.953 117.235 84.6354C116.121 85.7495 114.779 86.909 114.279 87.2273C113.756 87.5456 112.983 88.0458 112.528 88.3414C111.392 89.1144 108.3 90.3649 105.73 91.0924C103.684 91.6836 103.32 91.7063 98.6822 91.7063C93.8167 91.7063 93.794 91.7063 91.634 90.9788C88.5192 89.9556 86.3593 88.5915 84.2903 86.4088C81.9485 83.9079 81.5165 82.8165 81.5165 79.4516C81.5165 77.1553 81.5847 76.8142 82.2441 75.3137C83.4718 72.4489 85.3134 70.289 88.8375 67.6062C89.997 66.7195 93.3165 65.0825 95.0444 64.5595C95.9766 64.2867 97.2726 63.8547 97.8864 63.6273C98.8413 63.2863 99.819 63.2181 103.957 63.2181C108.845 63.1954 108.891 63.1954 111.005 63.8774ZM210.612 64.6277C211.089 65.4235 211.817 67.6516 212.453 70.3117C212.976 72.5399 213.044 73.2447 213.044 77.2917C213.044 81.316 212.976 82.0435 212.476 84.158C211.157 89.6373 209.384 93.2751 205.951 97.5949C203.154 101.119 197.629 105.484 195.97 105.484C195.447 105.484 195.287 105.28 194.696 103.938C193.355 100.914 192.764 99.0955 192.241 96.2308C192.059 95.2531 191.809 94.0027 191.672 93.4342C191.559 92.8659 191.468 90.6605 191.468 88.546C191.468 86.4088 191.559 84.2262 191.672 83.6578C191.809 83.0894 192.036 81.8616 192.218 80.9294C192.9 77.3144 195.901 72.1534 198.766 69.6751C201.358 67.4243 203.382 66.1738 206.678 64.8551C208.224 64.2185 209.566 63.9002 210.02 64.0593C210.157 64.1048 210.43 64.3549 210.612 64.6277ZM61.2815 89.8647C64.0553 91.9337 68.5343 94.4801 71.74 95.8215C73.6726 96.64 78.2425 98.0497 81.1755 98.7317L84.2448 99.4366L91.7477 99.4593C99.1369 99.4593 99.2961 99.4593 102.07 98.8227C103.616 98.4816 105.412 98.0269 106.049 97.8223C108.572 97.0493 111.119 96.1853 111.983 95.8215C113.711 95.094 118.349 92.7067 118.804 92.2975C119.463 91.729 121.282 90.7059 121.668 90.7059C122.259 90.7059 124.76 94.4346 128.194 100.369C130.513 104.393 134.832 113.328 134.832 114.124C134.832 114.647 134.059 114.283 132.945 113.26C129.785 110.304 124.715 107.872 119.145 106.598C117.28 106.166 116.325 106.098 111.983 106.098C107.481 106.121 106.708 106.166 104.162 106.712C99.1142 107.781 96.2267 108.872 92.9982 110.964C89.7697 113.055 85.9955 117.398 84.0402 121.24C81.994 125.287 80.7208 129.357 80.0159 134.223C79.2429 139.566 79.2429 143.158 80.0159 148.455C80.1296 149.274 80.2888 150.479 80.357 151.115L80.5161 152.321L79.2202 153.503C76.4009 156.14 73.4452 160.255 71.3763 164.371C69.5346 168.099 68.8753 169.827 68.7389 171.328C68.6252 172.624 68.6479 172.76 69.1254 173.01C70.3077 173.647 70.9215 172.942 72.2175 169.486C73.1269 167.099 75.1277 163.279 76.6965 160.915C78.3335 158.505 81.6075 155.072 83.4946 153.844C86.814 151.661 88.4965 151.184 92.5662 151.161C95.8629 151.161 97.7273 151.638 100.183 153.071C102.047 154.162 105.412 157.504 106.731 159.551C108.504 162.324 110.323 166.44 111.073 169.373C112.483 174.829 112.597 175.784 112.642 181.877C112.665 188.243 112.733 187.789 110.96 194.655C110.664 195.792 109.05 199.179 108.049 200.703C107.072 202.249 104.184 205.295 102.593 206.478C100.797 207.819 98.5913 208.842 96.1812 209.502C93.271 210.275 88.1782 210.32 85.2452 209.615C82.0849 208.842 79.8341 208.024 77.083 206.66C74.1046 205.182 72.2857 203.977 69.5574 201.612C68.5115 200.68 66.056 198.611 64.1235 196.997C58.6441 192.381 54.4152 187.971 52.3235 184.674C49.9589 180.945 47.4352 174.261 46.8441 170.1C46.7304 169.213 46.5031 167.986 46.3894 167.394C46.253 166.803 46.1166 163.666 46.0938 160.392C46.0483 154.026 46.1393 152.98 47.5489 145.841C48.7994 139.406 49.5042 137.406 50.8684 136.519C51.7551 135.928 57.9165 129.857 58.6896 128.811C59.4626 127.766 59.5081 127.243 58.8942 126.629C58.0075 125.742 57.621 125.992 53.6649 129.88C48.6403 134.814 43.2518 139.406 35.7262 145.159C32.2021 147.842 31.9748 148.092 32.1339 149.047C32.2021 149.479 32.6568 150.479 33.157 151.252C34.4757 153.389 35.2487 155.504 35.2487 157.072C35.2487 158.368 35.226 158.414 34.1574 159.437C33.2707 160.255 32.7705 160.505 31.7474 160.733C29.974 161.097 27.7686 160.619 26.1089 159.482C24.4264 158.368 23.8353 158.414 22.1755 159.846C17.8784 163.507 10.2619 164.803 6.76052 162.484C5.51004 161.642 4.30503 159.96 3.57748 158.05C3.1455 156.89 3.10003 156.299 3.07729 152.548C3.07729 148.114 3.19097 147.273 4.46419 143.112C5.44183 139.929 7.46534 135.087 8.89771 132.472C9.01139 132.245 9.44337 131.472 9.80715 130.767C10.6029 129.289 12.5809 125.992 13.8314 124.082C20.7432 113.465 32.6796 102.597 46.2757 94.5256C47.6626 93.7071 49.1404 92.8204 49.5724 92.5703C50.0044 92.2975 52.2098 91.1607 54.4379 90.0466C59.0761 87.7275 58.4395 87.7503 61.2815 89.8647ZM127.421 88.8643C133.446 92.1383 138.675 94.7984 144.154 97.3448C146.723 98.5271 149.338 99.7094 149.952 99.9595C150.589 100.232 151.612 100.642 152.225 100.892C154.181 101.71 155.818 102.233 157.136 102.506C158.478 102.779 159.342 103.279 161.593 105.052C163.594 106.598 165.321 107.667 167.731 108.804C170.483 110.077 171.778 110.532 175.189 111.282C177.826 111.896 178.076 111.896 183.328 111.805C188.33 111.714 188.762 111.737 188.967 112.101C189.081 112.328 189.172 113.556 189.172 114.874C189.172 117.284 188.603 119.922 187.648 121.854C186.216 124.719 183.624 127.22 180.373 128.88C178.167 130.016 177.212 130.358 174.052 131.176C168.823 132.495 167.049 132.654 156.318 132.654C150.952 132.654 145.95 132.563 145.2 132.449C143.563 132.222 142.904 131.653 142.676 130.244C141.994 125.969 139.925 118.876 137.925 113.942C137.106 111.964 136.31 110.077 135.856 109.008C135.083 107.212 132.15 101.46 130.922 99.3456C130.24 98.1633 129.535 96.9356 129.353 96.6173C129.171 96.299 127.989 94.4346 126.716 92.4793C125.42 90.5013 124.374 88.8188 124.374 88.7052C124.374 88.3869 124.897 87.9776 125.352 87.9776C125.602 87.9776 126.534 88.3641 127.421 88.8643ZM112.665 91.9791C113.188 92.1838 112.665 92.5248 111.824 92.5248C111.119 92.5248 110.96 92.161 111.596 92.0019C112.21 91.8427 112.256 91.8427 112.665 91.9791ZM110.732 93.0932C110.732 93.3433 110.459 93.4342 109.709 93.4342C108.595 93.4342 108.3 93.0705 109.323 92.9113C110.528 92.7294 110.732 92.7522 110.732 93.0932ZM119.599 109.668C125.465 111.282 128.921 113.237 132.491 116.921C135.56 120.104 137.197 122.764 138.789 127.197C139.743 129.88 140.198 131.699 140.403 133.563C140.494 134.314 140.698 136.087 140.88 137.497C141.244 140.361 141.289 144.636 140.994 146.864C140.88 147.682 140.676 149.251 140.539 150.388C140.13 153.616 139.425 156.231 137.561 161.529C136.788 163.711 133.855 169.532 132.354 171.873C129.399 176.466 125.01 181.104 121.168 183.696C118.713 185.356 116.484 186.493 116.053 186.334C115.802 186.243 115.734 185.447 115.734 182.4C115.734 180.104 115.598 177.739 115.393 176.489C115.211 175.329 114.938 173.67 114.825 172.76C114.575 171.1 114.325 170.1 113.324 166.985C110.596 158.573 106.185 152.752 100.274 149.842C98.0229 148.728 95.6128 148.228 92.3161 148.228C89.1103 148.228 87.9508 148.455 85.177 149.615C84.4949 149.888 83.8129 150.07 83.631 150.001C82.9716 149.729 82.5169 147.41 82.3805 143.613C81.8348 127.152 88.5874 114.533 99.9554 110.759C104.548 109.236 107.163 108.895 113.347 109.031C116.985 109.099 117.962 109.213 119.599 109.668ZM173.484 143.294C174.166 143.658 175.052 144.09 175.416 144.295C176.394 144.818 179.35 147.864 180.418 149.479C181.191 150.638 182.305 152.73 183.056 154.48C183.578 155.685 184.215 158.141 184.624 160.46C185.625 166.121 184.965 172.578 182.828 178.467C182.169 180.331 180.009 184.401 178.781 186.152C176.598 189.267 173.12 192.29 169.937 193.882C166.89 195.383 162.116 196.428 158.228 196.428C156.182 196.428 150.702 195.814 149.156 195.405C148.474 195.223 146.792 194.814 145.405 194.496C142.904 193.905 140.562 193.314 137.788 192.563C136.97 192.336 135.446 191.949 134.378 191.677C133.309 191.404 131.786 190.994 130.967 190.744C130.149 190.494 129.194 190.221 128.807 190.153C128.444 190.085 127.511 189.835 126.761 189.608C125.238 189.153 122.305 188.357 121.35 188.152C120.827 188.016 120.759 187.948 120.963 187.584C121.077 187.334 121.577 186.925 122.032 186.629C125.556 184.492 130.808 179.285 133.741 175.057C137.697 169.304 141.289 161.028 142.699 154.367C143.017 152.934 143.449 151.457 143.654 151.093C143.95 150.593 144.836 150.024 146.996 148.933C148.633 148.114 150.611 147.159 151.43 146.818C152.248 146.5 153.294 146.068 153.749 145.863C154.204 145.659 154.636 145.591 154.704 145.704C154.772 145.795 154.272 146.773 153.567 147.887C151.407 151.32 150.088 154.503 148.906 159.119C148.542 160.551 148.247 162.256 148.247 162.915C148.247 164.03 148.292 164.12 148.974 164.348C149.929 164.689 150.657 164.211 150.93 163.075C152.18 157.686 153.021 155.003 154.226 152.616C156.659 147.751 159.569 144.818 163.639 143.09C164.867 142.589 165.185 142.544 168.595 142.612C172.051 142.658 172.301 142.703 173.484 143.294Z" fill="white"/>
<path d="M42.2979 27.7274C39.1603 28.1594 36.1137 30.1602 34.8859 32.5702C34.3175 33.6388 33.6582 36.3217 33.6582 37.5267C33.6582 38.9818 34.454 42.0284 35.2952 43.8018C36.2501 45.8253 38.4782 48.1671 40.3199 49.0766C42.548 50.1906 44.1395 49.986 45.1172 48.4854C45.5946 47.7124 45.6856 47.2804 45.7992 44.5521C45.9584 41.5282 46.0493 41.028 47.3453 36.8219C47.8227 35.2758 49.1642 32.3429 50.0736 30.8423C50.5511 30.0465 50.5511 29.9328 50.2328 29.3644C49.5279 28.0912 45.5264 27.25 42.2979 27.7274ZM46.6177 30.9332C46.6177 31.0696 46.4586 31.4562 46.2767 31.7745C44.6852 34.6847 43.1164 40.4596 42.8436 44.3702C42.7071 46.4847 42.6844 46.5983 42.2069 46.5983C41.1611 46.5983 38.8875 44.5066 37.978 42.7105C36.432 39.6866 36.2046 36.3444 37.4096 34.1617C38.1827 32.7294 38.6601 32.2519 40.2516 31.3879C41.4339 30.7286 41.6385 30.6831 44.0713 30.6831C45.7538 30.6831 46.6177 30.7741 46.6177 30.9332Z" fill="white"/>
<path d="M113.603 49.2223L113.612 49.219L113.621 49.2157C113.963 49.0889 114.342 49.0365 114.639 49.011C114.962 48.9832 115.307 48.978 115.636 48.9897C115.965 49.0014 116.304 49.0309 116.614 49.0804C116.885 49.1238 117.271 49.2026 117.609 49.3717L117.609 49.3716L117.619 49.3767C119.234 50.1992 120.498 51.848 121.033 53.6154C121.318 54.5308 121.507 55.3211 121.53 56.1366C121.553 56.9699 121.4 57.7258 121.151 58.5712L121.15 58.5741C120.881 59.4829 120.292 60.3485 119.664 61.0074C119.053 61.6487 118.209 62.2987 117.287 62.5343L117.278 62.5365L117.269 62.5387C116.768 62.6601 116.262 62.6008 115.893 62.5266C115.49 62.4455 115.076 62.3094 114.686 62.1467C113.938 61.8341 113.088 61.3409 112.506 60.724L112.506 60.724L112.502 60.7204C111.412 59.5585 110.712 58.0058 110.421 56.4829C110.132 54.9762 110.209 53.2976 110.926 51.9277L110.929 51.9208L110.933 51.9139C111.247 51.3297 111.649 50.7789 112.073 50.3288C112.472 49.907 113.002 49.4536 113.603 49.2223Z" fill="#1A282E" stroke="white" stroke-width="3"/>
<path d="M73.6553 60.1308L73.6552 60.1308L73.6568 60.125C74.2309 57.9782 75.0901 56.4434 76.8914 55.5555C77.8286 55.0814 78.8512 54.7625 79.9586 55.0063C81.032 55.2427 81.8829 55.9451 82.6417 56.7661L82.6453 56.77C84.5603 58.8566 85.0701 61.5919 84.0593 64.289C83.5831 65.5668 82.9615 66.6587 82.0548 67.4265C81.106 68.23 79.9867 68.5605 78.7664 68.5605C77.4255 68.5605 76.2108 68.1283 75.2603 67.1905C74.3443 66.2868 73.7983 65.0371 73.5012 63.6161L73.501 63.615C73.3788 63.0284 73.297 62.5054 73.3264 61.9132C73.3546 61.3439 73.4826 60.7869 73.6553 60.1308Z" fill="#1A282E" stroke="white" stroke-width="3"/>
<path d="M99.8193 67.538C98.3642 68.061 96.1134 70.13 95.7041 71.3122C95.3403 72.449 95.6359 73.6995 96.4999 74.5407C97.3411 75.3592 98.3415 75.7003 99.8648 75.7003C100.82 75.7003 100.979 75.7685 101.297 76.3824C102.025 77.7693 101.547 80.0883 100.342 81.1569C98.9099 82.4301 96.4317 82.5893 94.4536 81.5662C93.5442 81.0887 93.476 81.0887 92.9076 81.4752C92.5665 81.6798 92.18 82.1346 92.0209 82.4529C91.7935 82.9758 91.839 83.0895 92.703 83.8852C93.908 85.022 95.0675 85.3176 97.8868 85.2039C99.8875 85.1357 100.297 85.0448 101.252 84.4764C102.366 83.817 103.594 82.5211 104.139 81.4525C104.321 81.1114 104.48 80.7931 104.503 80.7477C104.526 80.7022 105.185 80.975 105.958 81.3615C107.118 81.9299 107.641 82.0664 108.914 82.0664C111.074 82.0664 112.506 81.3843 114.325 79.4745C115.757 77.9966 115.757 77.9739 115.689 76.8143C115.621 75.7457 115.553 75.6093 115.007 75.4274C114.211 75.1546 113.234 75.6093 112.824 76.4278C112.188 77.7465 109.778 79.2471 108.641 79.0197C107.504 78.7924 106.049 77.6101 105.276 76.2687L104.571 75.0409L105.822 73.5404C107.118 72.0398 107.254 71.6533 107.118 69.9026C107.027 68.8795 106.526 68.2656 105.276 67.629C103.866 66.9242 101.684 66.8787 99.8193 67.538Z" fill="white"/>
<path d="M91.8152 156.8C90.3829 158.118 89.8145 159.528 89.8145 161.87C89.8145 164.962 90.4965 166.531 92.2245 167.486C92.9975 167.918 93.2703 167.963 93.9751 167.758C95.9986 167.213 97.5447 164.575 97.5447 161.756C97.5447 158.619 95.7713 155.958 93.6568 155.958C92.952 155.958 92.5655 156.14 91.8152 156.8Z" fill="white"/>
<path d="M82.1757 162.734C81.7664 163.007 81.198 163.711 80.857 164.393C79.561 167.031 80.3568 170.237 82.6076 171.419L83.6762 171.987L84.7448 171.419C86.1772 170.669 86.882 169.418 87.0412 167.326C87.1321 166.03 87.0639 165.621 86.6319 164.735C85.8589 163.234 85.0404 162.529 83.8581 162.393C83.1533 162.325 82.6759 162.415 82.1757 162.734Z" fill="white"/>
<path d="M99.4098 165.576C98.6368 166.349 98.3867 166.849 98.0684 168.1C97.7046 169.578 97.7273 169.737 98.0911 171.169C98.5913 173.147 99.5689 174.147 101.001 174.147C101.865 174.147 102.07 174.034 103.048 172.988L104.139 171.828V169.373C104.139 167.031 104.116 166.895 103.457 166.008C102.661 164.894 102.161 164.598 101.138 164.598C100.524 164.598 100.16 164.803 99.4098 165.576Z" fill="white"/>
<path d="M89.7024 173.215C85.9737 174.124 83.0635 178.171 81.8585 184.014C81.2674 186.902 81.2674 189.494 81.8813 192.268C82.4497 194.928 82.9271 196.178 84.0412 197.929C85.5872 200.43 87.6335 201.726 90.0435 201.749C92.1125 201.771 93.6358 200.998 95.5911 198.907C97.1826 197.247 97.8647 196.065 98.8651 193.245C99.4335 191.608 99.4562 191.358 99.4789 186.766C99.4789 182.355 99.4335 181.877 98.956 180.559C98.0466 178.012 97.1826 176.58 95.773 175.216C93.6585 173.215 91.976 172.669 89.7024 173.215Z" fill="white"/>
<path d="M167.004 147.887C165.639 149.297 165.23 150.502 165.23 152.98C165.207 155.322 165.412 155.981 166.526 157.141C167.004 157.664 167.299 157.777 168.186 157.777C169.118 157.777 169.414 157.664 170.118 157.004C170.573 156.595 171.21 155.708 171.551 155.049C172.074 154.003 172.165 153.548 172.187 151.752C172.187 149.865 172.142 149.547 171.573 148.615C170.823 147.319 170.437 147.091 168.913 147.091C167.868 147.091 167.663 147.182 167.004 147.887Z" fill="white"/>
<path d="M159.57 153.821C158.07 154.617 157.16 157.731 157.774 159.982C158.024 160.915 158.911 161.824 159.866 162.165C160.571 162.392 162.117 161.346 162.821 160.141C163.39 159.187 163.481 158.8 163.481 157.345C163.481 156.049 163.367 155.503 163.003 154.912C162.117 153.48 160.912 153.093 159.57 153.821Z" fill="white"/>
<path d="M175.758 155.003C174.689 155.526 174.053 156.572 173.712 158.277C173.484 159.528 173.507 159.869 173.871 160.96C174.235 162.051 174.417 162.279 175.281 162.711C176.213 163.188 176.326 163.188 177.1 162.87C178.759 162.211 179.851 160.369 179.851 158.232C179.851 155.322 178.009 153.866 175.758 155.003Z" fill="white"/>
<path d="M165.527 163.189C164.936 163.416 163.844 164.212 162.889 165.098C160.502 167.349 159.297 169.85 158.479 174.17C157.933 177.012 157.91 177.808 158.365 180.354C159.183 185.083 161.116 187.812 164.345 188.858C165.64 189.267 166.709 189.13 168.437 188.312C169.415 187.834 171.779 185.697 172.188 184.879C172.37 184.538 172.825 183.651 173.212 182.923C173.621 182.173 174.189 180.65 174.53 179.536C175.076 177.649 175.121 177.285 175.03 173.738C174.94 169.737 174.962 169.85 173.53 166.917C172.825 165.439 171.415 163.939 170.188 163.348C168.96 162.757 166.823 162.688 165.527 163.189Z" fill="white"/>
</svg>
