<svg width="31" height="21" viewBox="0 0 31 21" fill="none" xmlns="http://www.w3.org/2000/svg">
<path d="M26.26 1.75872C24.2532 0.937115 22.1076 0.339976 19.8644 0C19.5889 0.435866 19.267 1.0221 19.0452 1.48848C16.6606 1.17466 14.2978 1.17466 11.9571 1.48848C11.7353 1.0221 11.4061 0.435866 11.1282 0C8.88253 0.339976 6.73443 0.939293 4.72775 1.76308C0.680248 7.11551 -0.416965 12.335 0.131642 17.4804C2.81616 19.2348 5.41777 20.3004 7.97549 20.9978C8.60701 20.2373 9.17024 19.4288 9.65546 18.5766C8.73136 18.2693 7.84628 17.8902 7.00995 17.4499C7.23183 17.3061 7.44884 17.1557 7.65853 17.001C12.7594 19.0887 18.3015 19.0887 23.3414 17.001C23.5535 17.1557 23.7705 17.3061 23.99 17.4499C23.1512 17.8923 22.2637 18.2715 21.3395 18.5788C21.8248 19.4288 22.3856 20.2394 23.0195 21C25.5796 20.3026 28.1837 19.237 30.8682 17.4804C31.512 11.5156 29.7686 6.34403 26.26 1.75872ZM10.3504 14.316C8.81914 14.316 7.56343 13.0651 7.56343 11.5418C7.56343 10.0184 8.79231 8.7653 10.3504 8.7653C11.9084 8.7653 13.1641 10.0162 13.1373 11.5418C13.1398 13.0651 11.9084 14.316 10.3504 14.316ZM20.6496 14.316C19.1183 14.316 17.8626 13.0651 17.8626 11.5418C17.8626 10.0184 19.0915 8.7653 20.6496 8.7653C22.2075 8.7653 23.4633 10.0162 23.4365 11.5418C23.4365 13.0651 22.2075 14.316 20.6496 14.316Z" fill="white"/>
</svg>
