<svg width="29" height="30" viewBox="0 0 29 30" fill="none" xmlns="http://www.w3.org/2000/svg">
<g clip-path="url(#clip0_332_195)">
<path d="M14.3845 0.515625C6.44185 0.515625 0 6.95627 0 14.9001C0 21.2556 4.12115 26.6474 9.83778 28.5498C10.5558 28.6828 10.7884 28.2369 10.7884 27.8581V25.1802C6.78707 26.0505 5.95397 23.4828 5.95397 23.4828C5.29948 21.8202 4.3561 21.3779 4.3561 21.3779C3.05071 20.4849 4.45559 20.504 4.45559 20.504C5.90003 20.6047 6.66001 21.9868 6.66001 21.9868C7.94263 24.1853 10.0248 23.55 10.8459 23.182C10.9742 22.253 11.347 21.6176 11.7593 21.2592C8.56476 20.8936 5.20598 19.6602 5.20598 14.1497C5.20598 12.5782 5.76817 11.2956 6.68758 10.2887C6.53894 9.92547 6.04627 8.46185 6.82783 6.48158C6.82783 6.48158 8.03613 6.0956 10.7848 7.95599C11.9319 7.63714 13.1618 7.47771 14.3845 7.47171C15.6072 7.47771 16.8382 7.63714 17.9878 7.95599C20.734 6.0956 21.9399 6.48158 21.9399 6.48158C22.7227 8.46304 22.23 9.92666 22.0814 10.2887C23.0044 11.2956 23.5618 12.5794 23.5618 14.1497C23.5618 19.6745 20.197 20.8912 16.9941 21.2472C17.5095 21.6932 17.9806 22.5682 17.9806 23.9108V27.8581C17.9806 28.2405 18.2107 28.69 18.9408 28.5486C24.6526 26.6438 28.7689 21.2532 28.7689 14.9001C28.7689 6.95627 22.3283 0.515625 14.3845 0.515625Z" fill="#DBDBDB"/>
</g>
<defs>
<clipPath id="clip0_332_195">
<rect y="0.515625" width="28.7689" height="28.7689" rx="14.3845" fill="white"/>
</clipPath>
</defs>
</svg>
