<svg width="34" height="34" viewBox="0 0 34 34" fill="none" xmlns="http://www.w3.org/2000/svg">
<path d="M16.6005 3.19531C24.2326 3.19531 30.429 9.3917 30.429 17.0224C30.429 24.6545 24.2326 30.8508 16.6005 30.8508C8.96983 30.8508 2.77344 24.6545 2.77344 17.0224C2.77344 9.3917 8.96983 3.19531 16.6005 3.19531ZM16.6005 5.27C10.1137 5.27 4.84812 10.5355 4.84812 17.0224C4.84812 23.5092 10.1137 28.7762 16.6005 28.7762C23.0874 28.7762 28.3543 23.5092 28.3543 17.0224C28.3543 10.5355 23.0874 5.27 16.6005 5.27ZM16.6005 14.2603C16.0279 14.2603 15.5632 14.725 15.5632 15.2976V22.9048C15.5632 23.4774 16.0279 23.9422 16.6005 23.9422C17.1731 23.9422 17.6379 23.4774 17.6379 22.9048V15.2976C17.6379 14.725 17.1731 14.2603 16.6005 14.2603ZM16.5977 10.1109C17.3612 10.1109 17.9809 10.7306 17.9809 11.494C17.9809 12.2575 17.3612 12.8772 16.5977 12.8772C15.8343 12.8772 15.2146 12.2575 15.2146 11.494C15.2146 10.7306 15.8343 10.1109 16.5977 10.1109Z" fill="#DBDBDB"/>
</svg>
