<svg width="30" height="25" viewBox="0 0 30 25" fill="none" xmlns="http://www.w3.org/2000/svg">
<path d="M30 0C28.83 0.723392 26.4825 1.70927 25.1025 1.99363C25.062 2.00456 25.029 2.01862 24.99 2.02956C23.7705 0.776514 22.0995 0 20.25 0C16.5225 0 13.5 3.14824 13.5 7.03081C13.5 7.23548 13.4835 7.61202 13.5 7.81201C8.4705 7.81201 4.6425 5.06843 1.8975 1.5624C1.599 2.3436 1.4685 3.5779 1.4685 4.7372C1.4685 6.92613 3.111 9.076 5.6685 10.4087C5.1975 10.5353 4.6785 10.6259 4.1385 10.6259C3.267 10.6259 2.3445 10.3869 1.5 9.6619C1.5 9.68846 1.5 9.71346 1.5 9.74158C1.5 12.8008 4.617 14.8834 7.389 15.4631C6.8265 15.8084 5.6925 15.8428 5.139 15.8428C4.749 15.8428 3.369 15.6568 3 15.585C3.771 18.0926 6.552 19.5019 9.2025 19.5519C7.1295 21.2455 5.691 21.8736 1.446 21.8736H0C2.682 23.6641 6.0975 25 9.5205 25C20.6655 25 27 16.1521 27 7.81201C27 7.67764 26.997 7.39641 26.9925 7.11362C26.9925 7.08549 27 7.05893 27 7.03081C27 6.98863 26.988 6.948 26.988 6.90582C26.9835 6.69333 26.979 6.49491 26.9745 6.39179C28.1595 5.50122 29.187 4.39035 30 3.1248C28.9125 3.6279 27.7455 3.96538 26.52 4.11849C27.771 3.33729 29.5485 1.47491 30 0Z" fill="white"/>
</svg>
