<svg width="86" height="86" viewBox="0 0 86 86" fill="none" xmlns="http://www.w3.org/2000/svg">
<path d="M38.4454 63.3329L37.5753 56.6979C36.9952 56.5166 36.4064 56.2447 35.8088 55.8821C35.2099 55.5195 34.6566 55.1388 34.149 54.74L28.0035 57.3505L23 48.6488L28.3298 44.6243C28.2573 44.298 28.2123 43.9717 28.1949 43.6454C28.176 43.3191 28.1666 42.9928 28.1666 42.6664C28.1666 42.3764 28.176 42.0682 28.1949 41.7419C28.2123 41.4156 28.2573 41.0711 28.3298 40.7086L23 36.6841L28.0035 28.0368L34.149 30.5929C34.6566 30.1941 35.2099 29.8228 35.8088 29.4791C36.4064 29.1339 36.9952 28.8526 37.5753 28.635L38.4454 22H48.4524L49.3225 28.635C49.9752 28.8888 50.564 29.1694 51.089 29.4769C51.6154 29.7858 52.1506 30.1578 52.6944 30.5929L58.8944 28.0368L63.8978 36.6841L58.5137 40.763C58.5862 41.1255 58.6224 41.4518 58.6224 41.7419V42.6664C58.6224 42.9565 58.613 43.2553 58.5941 43.5627C58.5767 43.8716 58.5318 44.2255 58.4593 44.6243L63.789 48.6488L58.7856 57.3505L52.6944 54.74C52.1506 55.1751 51.598 55.5558 51.0368 55.8821C50.474 56.2084 49.9026 56.4803 49.3225 56.6979L48.4524 63.3329H38.4454ZM43.4489 49.1927C45.2618 49.1927 46.8027 48.5582 48.0717 47.2892C49.3407 46.0202 49.9752 44.4793 49.9752 42.6664C49.9752 40.8536 49.3407 39.3127 48.0717 38.0437C46.8027 36.7747 45.2618 36.1402 43.4489 36.1402C41.6361 36.1402 40.0951 36.7747 38.8261 38.0437C37.5572 39.3127 36.9227 40.8536 36.9227 42.6664C36.9227 44.4793 37.5572 46.0202 38.8261 47.2892C40.0951 48.5582 41.6361 49.1927 43.4489 49.1927ZM43.4489 45.9296C42.5425 45.9296 41.7724 45.612 41.1386 44.9767C40.5034 44.343 40.1858 43.5729 40.1858 42.6664C40.1858 41.76 40.5034 40.9899 41.1386 40.3562C41.7724 39.7209 42.5425 39.4033 43.4489 39.4033C44.3553 39.4033 45.1254 39.7209 45.7592 40.3562C46.3944 40.9899 46.712 41.76 46.712 42.6664C46.712 43.5729 46.3944 44.343 45.7592 44.9767C45.1254 45.612 44.3553 45.9296 43.4489 45.9296ZM41.2735 60.0698H45.5699L46.3313 54.2505C47.4553 53.9605 48.4705 53.5435 49.3769 52.9997C50.2833 52.4558 51.1716 51.7669 52.0418 50.933L57.4259 53.2172L59.6014 49.519L54.8698 45.984C55.0511 45.4038 55.1693 44.8419 55.2244 44.298C55.2781 43.7542 55.3049 43.2103 55.3049 42.6664C55.3049 42.0863 55.2781 41.5338 55.2244 41.0088C55.1693 40.4823 55.0511 39.9472 54.8698 39.4033L59.6014 35.8139L57.4803 32.1157L51.9874 34.3999C51.2623 33.6385 50.3921 32.9583 49.3769 32.3593C48.3617 31.7618 47.3465 31.3362 46.3313 31.0824L45.6243 25.2631H41.3279L40.5665 31.0824C39.4788 31.3362 38.4636 31.735 37.5209 32.2788C36.5782 32.8227 35.6718 33.5116 34.8016 34.3455L29.4175 32.1157L27.2964 35.8139L31.9736 39.2946C31.7923 39.8384 31.6654 40.3823 31.5929 40.9261C31.5204 41.47 31.4841 42.0501 31.4841 42.6664C31.4841 43.2466 31.5204 43.8085 31.5929 44.3524C31.6654 44.8962 31.7923 45.4401 31.9736 45.984L27.2964 49.519L29.4175 53.2172L34.8016 50.933C35.6355 51.7669 36.5238 52.4558 37.4665 52.9997C38.4092 53.5435 39.4425 53.9605 40.5665 54.2505L41.2735 60.0698Z" fill="#F6F6F6"/>
<rect x="1" y="1" width="84" height="84" rx="14" stroke="#4A4A4A" stroke-width="2"/>
</svg>
