<svg width="525" height="118" viewBox="0 0 525 118" fill="none" xmlns="http://www.w3.org/2000/svg">
<path d="M138.054 34.52H145.614V51.68H165.474V34.52H173.034V77H165.474V58.16H145.614V77H138.054V34.52ZM198.13 73.34H197.95C197.23 74.62 196.07 75.68 194.47 76.52C192.87 77.32 191.05 77.72 189.01 77.72C187.85 77.72 186.63 77.56 185.35 77.24C184.11 76.96 182.95 76.48 181.87 75.8C180.83 75.08 179.95 74.16 179.23 73.04C178.55 71.88 178.21 70.46 178.21 68.78C178.21 66.62 178.81 64.9 180.01 63.62C181.25 62.34 182.83 61.36 184.75 60.68C186.67 60 188.79 59.56 191.11 59.36C193.47 59.12 195.77 59 198.01 59V58.28C198.01 56.48 197.35 55.16 196.03 54.32C194.75 53.44 193.21 53 191.41 53C189.89 53 188.43 53.32 187.03 53.96C185.63 54.6 184.47 55.38 183.55 56.3L179.83 51.92C181.47 50.4 183.35 49.26 185.47 48.5C187.63 47.74 189.81 47.36 192.01 47.36C194.57 47.36 196.67 47.72 198.31 48.44C199.99 49.16 201.31 50.1 202.27 51.26C203.23 52.42 203.89 53.72 204.25 55.16C204.65 56.6 204.85 58.04 204.85 59.48V77H198.13V73.34ZM198.01 63.86H196.39C195.23 63.86 194.01 63.92 192.73 64.04C191.45 64.12 190.27 64.34 189.19 64.7C188.11 65.02 187.21 65.5 186.49 66.14C185.77 66.74 185.41 67.58 185.41 68.66C185.41 69.34 185.55 69.92 185.83 70.4C186.15 70.84 186.55 71.2 187.03 71.48C187.51 71.76 188.05 71.96 188.65 72.08C189.25 72.2 189.85 72.26 190.45 72.26C192.93 72.26 194.81 71.6 196.09 70.28C197.37 68.96 198.01 67.16 198.01 64.88V63.86ZM211.438 48.2H218.338V53H218.458C219.258 51.32 220.378 49.96 221.818 48.92C223.258 47.88 224.938 47.36 226.858 47.36C227.138 47.36 227.438 47.38 227.758 47.42C228.078 47.42 228.358 47.46 228.598 47.54V54.14C228.118 54.02 227.698 53.94 227.338 53.9C227.018 53.86 226.698 53.84 226.378 53.84C224.738 53.84 223.418 54.14 222.418 54.74C221.418 55.34 220.638 56.06 220.078 56.9C219.518 57.74 219.138 58.6 218.938 59.48C218.738 60.36 218.638 61.06 218.638 61.58V77H211.438V48.2ZM265.873 47.36C267.753 47.36 269.353 47.7 270.673 48.38C272.033 49.02 273.133 49.88 273.973 50.96C274.853 52.04 275.493 53.28 275.893 54.68C276.293 56.08 276.493 57.52 276.493 59V77H269.293V61.04C269.293 60.2 269.233 59.32 269.113 58.4C268.993 57.48 268.733 56.66 268.333 55.94C267.933 55.18 267.373 54.56 266.653 54.08C265.973 53.6 265.053 53.36 263.893 53.36C262.773 53.36 261.813 53.6 261.013 54.08C260.213 54.56 259.553 55.18 259.033 55.94C258.513 56.7 258.133 57.56 257.893 58.52C257.653 59.44 257.533 60.36 257.533 61.28V77H250.333V59.6C250.333 57.8 249.893 56.32 249.013 55.16C248.173 53.96 246.833 53.36 244.993 53.36C243.913 53.36 242.973 53.6 242.173 54.08C241.373 54.52 240.713 55.1 240.193 55.82C239.713 56.54 239.333 57.38 239.053 58.34C238.813 59.26 238.693 60.2 238.693 61.16V77H231.493V48.2H238.333V52.82H238.453C238.773 52.1 239.193 51.42 239.713 50.78C240.273 50.14 240.913 49.56 241.633 49.04C242.393 48.52 243.253 48.12 244.213 47.84C245.173 47.52 246.233 47.36 247.393 47.36C249.633 47.36 251.493 47.86 252.973 48.86C254.453 49.86 255.593 51.18 256.393 52.82C257.353 51.06 258.633 49.72 260.233 48.8C261.833 47.84 263.713 47.36 265.873 47.36ZM281.392 62.48C281.392 60.2 281.792 58.14 282.592 56.3C283.432 54.42 284.552 52.82 285.952 51.5C287.352 50.18 289.012 49.16 290.932 48.44C292.852 47.72 294.892 47.36 297.052 47.36C299.212 47.36 301.252 47.72 303.172 48.44C305.092 49.16 306.752 50.18 308.152 51.5C309.552 52.82 310.652 54.42 311.452 56.3C312.292 58.14 312.712 60.2 312.712 62.48C312.712 64.76 312.292 66.84 311.452 68.72C310.652 70.6 309.552 72.22 308.152 73.58C306.752 74.9 305.092 75.94 303.172 76.7C301.252 77.46 299.212 77.84 297.052 77.84C294.892 77.84 292.852 77.46 290.932 76.7C289.012 75.94 287.352 74.9 285.952 73.58C284.552 72.22 283.432 70.6 282.592 68.72C281.792 66.84 281.392 64.76 281.392 62.48ZM288.712 62.48C288.712 63.6 288.872 64.72 289.192 65.84C289.552 66.96 290.072 67.96 290.752 68.84C291.432 69.72 292.292 70.44 293.332 71C294.372 71.56 295.612 71.84 297.052 71.84C298.492 71.84 299.732 71.56 300.772 71C301.812 70.44 302.672 69.72 303.352 68.84C304.032 67.96 304.532 66.96 304.852 65.84C305.212 64.72 305.392 63.6 305.392 62.48C305.392 61.36 305.212 60.26 304.852 59.18C304.532 58.06 304.032 57.06 303.352 56.18C302.672 55.3 301.812 54.6 300.772 54.08C299.732 53.52 298.492 53.24 297.052 53.24C295.612 53.24 294.372 53.52 293.332 54.08C292.292 54.6 291.432 55.3 290.752 56.18C290.072 57.06 289.552 58.06 289.192 59.18C288.872 60.26 288.712 61.36 288.712 62.48ZM317.893 48.2H324.733V52.82H324.853C325.493 51.38 326.593 50.12 328.153 49.04C329.753 47.92 331.633 47.36 333.793 47.36C335.673 47.36 337.273 47.7 338.593 48.38C339.953 49.02 341.053 49.88 341.893 50.96C342.773 52.04 343.413 53.28 343.813 54.68C344.213 56.08 344.413 57.52 344.413 59V77H337.213V61.04C337.213 60.2 337.153 59.32 337.033 58.4C336.913 57.48 336.653 56.66 336.253 55.94C335.853 55.18 335.293 54.56 334.573 54.08C333.893 53.6 332.973 53.36 331.813 53.36C330.653 53.36 329.653 53.6 328.813 54.08C327.973 54.52 327.273 55.1 326.713 55.82C326.193 56.54 325.793 57.38 325.513 58.34C325.233 59.26 325.093 60.2 325.093 61.16V77H317.893V48.2ZM351.135 48.2H358.335V77H351.135V48.2ZM350.115 38.42C350.115 37.26 350.535 36.26 351.375 35.42C352.255 34.54 353.355 34.1 354.675 34.1C355.995 34.1 357.095 34.52 357.975 35.36C358.895 36.16 359.355 37.18 359.355 38.42C359.355 39.66 358.895 40.7 357.975 41.54C357.095 42.34 355.995 42.74 354.675 42.74C353.355 42.74 352.255 42.32 351.375 41.48C350.535 40.6 350.115 39.58 350.115 38.42ZM384.95 56.18C384.39 55.38 383.55 54.72 382.43 54.2C381.31 53.64 380.17 53.36 379.01 53.36C377.69 53.36 376.53 53.64 375.53 54.2C374.53 54.72 373.69 55.42 373.01 56.3C372.37 57.18 371.89 58.18 371.57 59.3C371.25 60.38 371.09 61.48 371.09 62.6C371.09 63.72 371.25 64.84 371.57 65.96C371.93 67.04 372.45 68.02 373.13 68.9C373.81 69.78 374.65 70.5 375.65 71.06C376.69 71.58 377.89 71.84 379.25 71.84C380.37 71.84 381.49 71.62 382.61 71.18C383.73 70.74 384.63 70.1 385.31 69.26L389.81 73.82C388.61 75.1 387.07 76.1 385.19 76.82C383.35 77.5 381.35 77.84 379.19 77.84C377.07 77.84 375.05 77.5 373.13 76.82C371.25 76.14 369.59 75.14 368.15 73.82C366.75 72.5 365.63 70.9 364.79 69.02C363.99 67.14 363.59 65 363.59 62.6C363.59 60.28 363.99 58.18 364.79 56.3C365.63 54.42 366.75 52.82 368.15 51.5C369.55 50.18 371.17 49.16 373.01 48.44C374.89 47.72 376.89 47.36 379.01 47.36C381.13 47.36 383.17 47.76 385.13 48.56C387.13 49.36 388.71 50.46 389.87 51.86L384.95 56.18ZM406.327 34.52H413.887V70.28H431.947V77H406.327V34.52ZM452.691 73.34H452.511C451.791 74.62 450.631 75.68 449.031 76.52C447.431 77.32 445.611 77.72 443.571 77.72C442.411 77.72 441.191 77.56 439.911 77.24C438.671 76.96 437.511 76.48 436.431 75.8C435.391 75.08 434.511 74.16 433.791 73.04C433.111 71.88 432.771 70.46 432.771 68.78C432.771 66.62 433.371 64.9 434.571 63.62C435.811 62.34 437.391 61.36 439.311 60.68C441.231 60 443.351 59.56 445.671 59.36C448.031 59.12 450.331 59 452.571 59V58.28C452.571 56.48 451.911 55.16 450.591 54.32C449.311 53.44 447.771 53 445.971 53C444.451 53 442.991 53.32 441.591 53.96C440.191 54.6 439.031 55.38 438.111 56.3L434.391 51.92C436.031 50.4 437.911 49.26 440.031 48.5C442.191 47.74 444.371 47.36 446.571 47.36C449.131 47.36 451.231 47.72 452.871 48.44C454.551 49.16 455.871 50.1 456.831 51.26C457.791 52.42 458.451 53.72 458.811 55.16C459.211 56.6 459.411 58.04 459.411 59.48V77H452.691V73.34ZM452.571 63.86H450.951C449.791 63.86 448.571 63.92 447.291 64.04C446.011 64.12 444.831 64.34 443.751 64.7C442.671 65.02 441.771 65.5 441.051 66.14C440.331 66.74 439.971 67.58 439.971 68.66C439.971 69.34 440.111 69.92 440.391 70.4C440.711 70.84 441.111 71.2 441.591 71.48C442.071 71.76 442.611 71.96 443.211 72.08C443.811 72.2 444.411 72.26 445.011 72.26C447.491 72.26 449.371 71.6 450.651 70.28C451.931 68.96 452.571 67.16 452.571 64.88V63.86ZM473.32 31.64V51.86H473.5C473.86 51.38 474.32 50.88 474.88 50.36C475.44 49.84 476.1 49.36 476.86 48.92C477.66 48.48 478.58 48.12 479.62 47.84C480.66 47.52 481.84 47.36 483.16 47.36C485.2 47.36 487.08 47.76 488.8 48.56C490.52 49.32 492 50.38 493.24 51.74C494.48 53.1 495.44 54.7 496.12 56.54C496.8 58.38 497.14 60.36 497.14 62.48C497.14 64.6 496.8 66.6 496.12 68.48C495.48 70.32 494.54 71.94 493.3 73.34C492.1 74.7 490.62 75.8 488.86 76.64C487.14 77.44 485.18 77.84 482.98 77.84C480.94 77.84 479.02 77.4 477.22 76.52C475.46 75.64 474.08 74.36 473.08 72.68H472.96V77H466.12V31.64H473.32ZM489.82 62.48C489.82 61.36 489.64 60.26 489.28 59.18C488.96 58.06 488.46 57.06 487.78 56.18C487.1 55.3 486.24 54.6 485.2 54.08C484.16 53.52 482.94 53.24 481.54 53.24C480.22 53.24 479.04 53.52 478 54.08C476.96 54.64 476.06 55.36 475.3 56.24C474.58 57.12 474.02 58.12 473.62 59.24C473.26 60.36 473.08 61.48 473.08 62.6C473.08 63.72 473.26 64.84 473.62 65.96C474.02 67.04 474.58 68.02 475.3 68.9C476.06 69.78 476.96 70.5 478 71.06C479.04 71.58 480.22 71.84 481.54 71.84C482.94 71.84 484.16 71.56 485.2 71C486.24 70.44 487.1 69.72 487.78 68.84C488.46 67.96 488.96 66.96 489.28 65.84C489.64 64.72 489.82 63.6 489.82 62.48ZM518.066 55.88C517.426 55.04 516.546 54.32 515.426 53.72C514.306 53.08 513.086 52.76 511.766 52.76C510.606 52.76 509.546 53 508.586 53.48C507.626 53.96 507.146 54.76 507.146 55.88C507.146 57 507.666 57.8 508.706 58.28C509.786 58.72 511.346 59.18 513.386 59.66C514.466 59.9 515.546 60.22 516.626 60.62C517.746 61.02 518.746 61.56 519.626 62.24C520.546 62.88 521.286 63.7 521.846 64.7C522.406 65.66 522.686 66.84 522.686 68.24C522.686 70 522.346 71.5 521.666 72.74C521.026 73.94 520.146 74.92 519.026 75.68C517.946 76.44 516.666 76.98 515.186 77.3C513.746 77.66 512.246 77.84 510.686 77.84C508.446 77.84 506.266 77.44 504.146 76.64C502.026 75.8 500.266 74.62 498.866 73.1L503.606 68.66C504.406 69.7 505.446 70.56 506.726 71.24C508.006 71.92 509.426 72.26 510.986 72.26C511.506 72.26 512.026 72.2 512.546 72.08C513.106 71.96 513.606 71.78 514.046 71.54C514.526 71.26 514.906 70.9 515.186 70.46C515.466 70.02 515.606 69.48 515.606 68.84C515.606 67.64 515.046 66.78 513.926 66.26C512.846 65.74 511.206 65.22 509.006 64.7C507.926 64.46 506.866 64.16 505.826 63.8C504.826 63.4 503.926 62.9 503.126 62.3C502.326 61.66 501.686 60.88 501.206 59.96C500.726 59.04 500.486 57.9 500.486 56.54C500.486 54.94 500.806 53.56 501.446 52.4C502.126 51.24 503.006 50.3 504.086 49.58C505.166 48.82 506.386 48.26 507.746 47.9C509.106 47.54 510.506 47.36 511.946 47.36C514.026 47.36 516.046 47.72 518.006 48.44C520.006 49.16 521.586 50.26 522.746 51.74L518.066 55.88Z" fill="white"/>
<g clip-path="url(#clip0_824_1074)">
<path d="M59 118C91.5848 118 118 91.5848 118 59C118 26.4152 91.5848 0 59 0C26.4152 0 0 26.4152 0 59C0 91.5848 26.4152 118 59 118Z" fill="#1A282E"/>
<path d="M11.8008 59.0024C55.9147 -97.134 62.0869 215.139 106.201 59.0024" stroke="#FF0000" stroke-linecap="round"/>
<path d="M11.918 58.9979C55.9216 -70.7904 62.0784 188.786 106.082 58.9979" stroke="#FF0000" stroke-width="2" stroke-linecap="round"/>
<path d="M12.0352 58.9998C55.9285 -44.5707 62.0699 162.57 105.963 58.9998" stroke="#FF0000" stroke-width="2" stroke-linecap="round"/>
<path d="M12.3906 58.9968C55.9531 -18.0955 62.0482 136.089 105.611 58.9968" stroke="#FF0000" stroke-width="2" stroke-linecap="round"/>
<path d="M12.9805 59.0002C55.9915 8.25587 62.0094 109.744 105.02 59.0002" stroke="#FF0000" stroke-width="4" stroke-linecap="round"/>
</g>
<rect x="0.25" y="0.25" width="117.5" height="117.5" stroke="#1A282E" stroke-width="0.5"/>
<defs>
<clipPath id="clip0_824_1074">
<rect width="118" height="118" fill="white"/>
</clipPath>
</defs>
</svg>
