<svg width="340" height="100" viewBox="0 0 340 100" fill="none" xmlns="http://www.w3.org/2000/svg">
<path d="M140.298 75V25.5455H159.81C163.561 25.5455 166.756 26.2618 169.396 27.6946C172.036 29.1113 174.049 31.0833 175.433 33.6108C176.834 36.1222 177.534 39.0199 177.534 42.304C177.534 45.5881 176.826 48.4858 175.409 50.9972C173.992 53.5085 171.94 55.4645 169.251 56.8651C166.579 58.2656 163.343 58.9659 159.544 58.9659H147.108V50.5866H157.854C159.866 50.5866 161.524 50.2405 162.828 49.5483C164.148 48.84 165.13 47.866 165.774 46.6264C166.434 45.3707 166.764 43.9299 166.764 42.304C166.764 40.6619 166.434 39.2292 165.774 38.0057C165.13 36.7661 164.148 35.8082 162.828 35.1321C161.508 34.4399 159.834 34.0938 157.805 34.0938H150.754V75H140.298ZM194.895 25.5455V75H184.608V25.5455H194.895ZM227.397 59.2074V37.9091H237.684V75H227.808V68.2628H227.421C226.584 70.4361 225.192 72.1828 223.244 73.5028C221.312 74.8229 218.954 75.483 216.169 75.483C213.689 75.483 211.508 74.9195 209.625 73.7926C207.741 72.6657 206.268 71.0639 205.206 68.9872C204.159 66.9105 203.628 64.4233 203.612 61.5256V37.9091H213.899V59.6903C213.915 61.8797 214.502 63.6103 215.662 64.8821C216.821 66.1539 218.374 66.7898 220.322 66.7898C221.562 66.7898 222.721 66.508 223.799 65.9446C224.878 65.3651 225.747 64.5118 226.407 63.3849C227.083 62.258 227.413 60.8655 227.397 59.2074ZM269.498 50.6108V58.7727H246.944V50.6108H269.498ZM298.468 37.9091V45.6364H276.132V37.9091H298.468ZM281.203 29.0227H291.49V63.6023C291.49 64.5521 291.634 65.2926 291.924 65.8239C292.214 66.339 292.616 66.7012 293.132 66.9105C293.663 67.1198 294.275 67.2244 294.967 67.2244C295.45 67.2244 295.933 67.1842 296.416 67.1037C296.899 67.0071 297.269 66.9347 297.527 66.8864L299.144 74.5412C298.629 74.7022 297.905 74.8873 296.971 75.0966C296.037 75.322 294.902 75.4588 293.566 75.5071C291.087 75.6037 288.914 75.2737 287.046 74.517C285.195 73.7604 283.754 72.5852 282.724 70.9915C281.694 69.3977 281.187 67.3854 281.203 64.9545V29.0227ZM336.041 48.4858L326.624 49.0653C326.463 48.2604 326.117 47.536 325.585 46.892C325.054 46.232 324.354 45.7088 323.484 45.3224C322.631 44.92 321.609 44.7188 320.418 44.7188C318.824 44.7188 317.48 45.0568 316.385 45.733C315.29 46.393 314.743 47.2784 314.743 48.3892C314.743 49.2746 315.097 50.0232 315.805 50.6349C316.514 51.2467 317.729 51.7377 319.452 52.108L326.165 53.4602C329.771 54.2008 332.459 55.392 334.23 57.0341C336.001 58.6761 336.886 60.8333 336.886 63.5057C336.886 65.9366 336.17 68.0696 334.737 69.9048C333.321 71.7401 331.373 73.1728 328.894 74.2031C326.43 75.2173 323.589 75.7244 320.369 75.7244C315.459 75.7244 311.547 74.7022 308.634 72.6577C305.736 70.5971 304.037 67.7959 303.538 64.2543L313.656 63.723C313.962 65.2202 314.703 66.3632 315.878 67.152C317.053 67.9247 318.558 68.3111 320.393 68.3111C322.197 68.3111 323.645 67.965 324.74 67.2727C325.851 66.5644 326.414 65.6548 326.43 64.544C326.414 63.6103 326.02 62.8456 325.247 62.25C324.474 61.6383 323.283 61.1714 321.673 60.8494L315.25 59.5696C311.628 58.8452 308.931 57.5895 307.161 55.8026C305.406 54.0156 304.528 51.7377 304.528 48.9688C304.528 46.5862 305.172 44.5336 306.46 42.8111C307.764 41.0885 309.591 39.7604 311.942 38.8267C314.308 37.893 317.077 37.4261 320.249 37.4261C324.933 37.4261 328.62 38.4162 331.308 40.3963C334.013 42.3764 335.59 45.0729 336.041 48.4858Z" fill="white"/>
<mask id="mask0_888_342" style="mask-type:luminance" maskUnits="userSpaceOnUse" x="0" y="0" width="100" height="100">
<path d="M100 0H0V100H100V0Z" fill="white"/>
</mask>
<g mask="url(#mask0_888_342)">
<g filter="url(#filter0_d_888_342)">
<path d="M0 50V100H50H100V50V0H50H0V50Z" fill="#007ACC"/>
<path d="M51.4468 66.4148C51.3567 68.06 51.9219 69.6742 53.0188 70.9037C54.1161 72.1329 55.6555 72.8779 57.3004 72.9751C57.421 72.9751 57.5465 72.9751 57.6598 72.9751C58.8745 72.9742 60.0628 72.6172 61.0773 71.9486C62.0918 71.2797 62.8881 70.3286 63.3678 69.2123C63.8475 68.096 63.9896 66.8637 63.7767 65.6674C63.5638 64.4711 63.005 63.3634 62.1696 62.4812C61.3342 61.5991 60.2585 60.9812 59.0758 60.7037C57.8927 60.4259 56.6545 60.5009 55.5139 60.9194C54.373 61.3379 53.3801 62.0815 52.6573 63.0582C51.9345 64.0348 51.5136 65.2015 51.4468 66.4148Z" fill="white"/>
<path d="M28.2734 64.8078C27.8768 64.7857 27.4826 64.8814 27.1404 65.0832C26.7984 65.2851 26.5237 65.5838 26.3514 65.9417C26.179 66.2995 26.1166 66.7004 26.172 67.0937C26.2275 67.4872 26.3983 67.8552 26.6629 68.1515C26.9275 68.4475 27.274 68.6589 27.6585 68.7583C28.0431 68.8577 28.4485 68.8407 28.8235 68.7097C29.1985 68.5786 29.5262 68.3392 29.7652 68.022C30.0042 67.7047 30.1438 67.3238 30.1664 66.9272C30.1816 66.6638 30.1448 66.3998 30.0579 66.1506C29.9709 65.9014 29.8357 65.6715 29.6598 65.4746C29.484 65.2777 29.271 65.1177 29.0331 65.0032C28.7952 64.8887 28.537 64.8223 28.2734 64.8078Z" fill="white"/>
<path d="M51.0529 30.3299C51.4062 30.1499 51.6985 29.8692 51.8929 29.5234C52.0871 29.1775 52.1745 28.7819 52.144 28.3863C52.1139 27.9908 51.9671 27.6131 51.7225 27.3009C51.4779 26.9887 51.1462 26.7559 50.7692 26.6319C50.3926 26.5079 49.9874 26.4983 49.6052 26.6042C49.2228 26.7101 48.8806 26.9268 48.6212 27.227C48.3619 27.5272 48.1975 27.8975 48.1483 28.2911C48.0991 28.6847 48.1677 29.084 48.3452 29.4387C48.4643 29.6752 48.6286 29.8859 48.8292 30.0588C49.0299 30.2316 49.2628 30.3631 49.5142 30.4459C49.7656 30.5287 50.0311 30.561 50.2951 30.5411C50.5591 30.5212 50.8166 30.4494 51.0529 30.3299Z" fill="white"/>
<path d="M57.3608 41.329C57.9088 41.0524 58.3627 40.6198 58.6651 40.0856C58.9673 39.5515 59.1042 38.9395 59.059 38.3275C59.0134 37.7151 58.7876 37.1302 58.4097 36.6465C58.0319 36.1628 57.519 35.8019 56.9362 35.6096C56.3531 35.417 55.7264 35.4019 55.1347 35.5659C54.5433 35.7296 54.0134 36.0653 53.6125 36.5302C53.2119 36.9948 52.9577 37.5684 52.8827 38.1776C52.8076 38.7868 52.915 39.4047 53.191 39.953C53.5617 40.6881 54.2091 41.2459 54.991 41.5038C55.7728 41.7619 56.6251 41.6988 57.3608 41.329Z" fill="white"/>
<path d="M36.1404 48.8922C36.5635 49.1695 37.0592 49.315 37.565 49.3104C38.0712 49.3058 38.5641 49.1513 38.9823 48.8664C39.4004 48.5815 39.7244 48.179 39.9137 47.7098C40.1029 47.2405 40.1487 46.7258 40.0457 46.2307C39.9423 45.7353 39.6943 45.2818 39.3334 44.9276C38.9721 44.5732 38.5143 44.3338 38.017 44.2399C37.5201 44.1458 37.0063 44.2015 36.5407 44.3993C36.0752 44.5975 35.6789 44.9292 35.402 45.3525C35.0306 45.9199 34.8998 46.6113 35.0383 47.2753C35.1767 47.939 35.573 48.5205 36.1404 48.8922Z" fill="white"/>
<path d="M39.9205 63.7004C39.307 63.6653 38.6968 63.813 38.1673 64.1247C37.6377 64.4367 37.2125 64.8982 36.9454 65.4518C36.6783 66.0053 36.5814 66.6256 36.667 67.2339C36.7525 67.8425 37.0165 68.4121 37.4257 68.8705C37.8346 69.329 38.3706 69.6558 38.9657 69.8096C39.5605 69.9635 40.1879 69.9373 40.7679 69.7345C41.3479 69.5318 41.855 69.1616 42.2245 68.6708C42.5943 68.1798 42.81 67.5902 42.8448 66.9767C42.891 66.1545 42.6091 65.3478 42.0608 64.7333C41.5125 64.1188 40.7426 63.7475 39.9205 63.7004Z" fill="white"/>
<path d="M36.4893 84.5563C36.0373 84.7837 35.6631 85.1403 35.4139 85.5806C35.1647 86.021 35.0518 86.5253 35.089 87.0296C35.1265 87.5342 35.3127 88.0163 35.6241 88.4148C35.9354 88.8136 36.3582 89.1111 36.8385 89.2696C37.3191 89.4277 37.8358 89.4403 38.3231 89.305C38.8108 89.1699 39.2471 88.8929 39.5773 88.5096C39.9074 88.1265 40.1167 87.6539 40.1782 87.1517C40.2398 86.6496 40.1508 86.1403 39.9231 85.6886C39.7724 85.3883 39.5638 85.121 39.3096 84.9016C39.0551 84.6819 38.7601 84.5148 38.441 84.4096C38.1222 84.3043 37.7856 84.2634 37.4505 84.2883C37.1154 84.3136 36.789 84.4046 36.4893 84.5563Z" fill="white"/>
<path d="M48.5531 57.2779C49.1571 57.6742 49.8651 57.8822 50.5876 57.876C51.31 57.8699 52.0143 57.6496 52.6116 57.2431C53.2088 56.8367 53.6722 56.2622 53.9429 55.5923C54.2137 54.9225 54.2796 54.1874 54.1328 53.48C53.9857 52.7727 53.6325 52.125 53.1171 51.6182C52.602 51.1117 51.9482 50.7696 51.2383 50.6345C50.5288 50.4997 49.7949 50.5782 49.1297 50.8603C48.4648 51.1425 47.8983 51.6154 47.502 52.2194C47.2383 52.6203 47.0565 53.0696 46.9666 53.541C46.8771 54.0123 46.8811 54.4967 46.9786 54.9665C47.0762 55.4363 47.2657 55.8825 47.5355 56.2791C47.8057 56.6757 48.1516 57.0151 48.5531 57.2779Z" fill="white"/>
<path d="M86.8211 41.0788C87.3346 41.4158 87.9368 41.593 88.5512 41.5881C89.1657 41.5828 89.7648 41.3955 90.2728 41.0499C90.7811 40.7044 91.1749 40.2158 91.4054 39.6459C91.6358 39.0764 91.6918 38.4511 91.5669 37.8496C91.442 37.2481 91.1414 36.697 90.7032 36.2662C90.2648 35.8355 89.7088 35.5444 89.1051 35.4296C88.5014 35.3148 87.8774 35.3819 87.3118 35.6219C86.746 35.8619 86.2645 36.2644 85.9275 36.7782C85.7035 37.1195 85.5491 37.501 85.4728 37.9019C85.3965 38.3025 85.3998 38.7142 85.4829 39.1136C85.566 39.513 85.7269 39.8924 85.9565 40.2293C86.186 40.5665 86.4798 40.8551 86.8211 41.0788Z" fill="white"/>
<path d="M93.1939 30.119C93.5262 30.3365 93.9154 30.4505 94.3123 30.4469C94.7096 30.4432 95.0966 30.3219 95.4246 30.0983C95.753 29.8747 96.0074 29.5589 96.156 29.1907C96.305 28.8225 96.3413 28.4185 96.2603 28.0297C96.1797 27.6409 95.9853 27.2848 95.7022 27.0063C95.4191 26.7279 95.06 26.5396 94.6699 26.4652C94.2797 26.3909 93.8763 26.4338 93.5108 26.5886C93.145 26.7434 92.8336 27.0031 92.6154 27.335C92.4702 27.5557 92.3702 27.8028 92.3207 28.0623C92.2711 28.3217 92.2736 28.5884 92.3271 28.8469C92.381 29.1056 92.485 29.351 92.6339 29.5693C92.7825 29.7876 92.973 29.9744 93.1939 30.119Z" fill="white"/>
<path d="M87.311 60.4788C86.496 60.4324 85.68 60.5471 84.9092 60.816C84.1387 61.085 83.4286 61.5031 82.8197 62.0468C82.2104 62.5902 81.7144 63.248 81.3597 63.9834C81.0049 64.7185 80.7987 65.5163 80.7523 66.3311C80.7058 67.1462 80.8203 67.9622 81.0895 68.733C81.3584 69.5034 81.7766 70.2136 82.32 70.8228C82.8633 71.4317 83.5215 71.9277 84.2566 72.2825C84.9917 72.6373 85.7895 72.8437 86.6046 72.8902C86.7252 72.8902 86.8507 72.8902 86.9615 72.8902C88.5797 72.8899 90.1338 72.2588 91.2941 71.1308C92.4541 70.0028 93.1286 68.4668 93.1741 66.8496C93.2197 65.232 92.6326 63.6604 91.5378 62.469C90.443 61.2776 88.9264 60.56 87.311 60.469V60.4788Z" fill="white"/>
<path d="M59.4036 56.8413C59.9196 57.8705 60.7131 58.7354 61.6941 59.3382C62.6753 59.941 63.8051 60.2579 64.9568 60.253C66.0178 60.2526 67.0615 59.981 67.9876 59.4631C68.9141 58.9456 69.6922 58.1991 70.2485 57.2954C70.8048 56.3917 71.1205 55.3607 71.1651 54.3007C71.2101 53.2403 70.983 52.1862 70.5051 51.2388C69.763 49.7665 68.4667 48.6496 66.9011 48.1333C65.3356 47.6167 63.6288 47.7434 62.1568 48.4856C60.6845 49.2274 59.5676 50.5237 59.051 52.0896C58.5347 53.6551 58.6615 55.3619 59.4036 56.8339V56.8413Z" fill="white"/>
<path d="M92.3712 50.8586C91.7263 51.1838 91.1921 51.693 90.8367 52.3216C90.481 52.9506 90.3198 53.6706 90.3733 54.3909C90.4269 55.1112 90.6927 55.7995 91.1376 56.3687C91.5823 56.9379 92.1856 57.3626 92.8715 57.589C93.5573 57.8155 94.2952 57.8333 94.9912 57.6404C95.6875 57.4478 96.3106 57.0527 96.7826 56.5059C97.2543 55.9589 97.5533 55.2844 97.6416 54.5675C97.7303 53.8506 97.6041 53.1235 97.2795 52.4783C96.8429 51.613 96.0807 50.9567 95.1604 50.653C94.2401 50.3493 93.237 50.4232 92.3712 50.8586Z" fill="white"/>
<path d="M72.0748 29.1736C72.5794 29.2019 73.081 29.08 73.5163 28.8235C73.9517 28.5668 74.3013 28.187 74.521 27.7319C74.7407 27.2768 74.8207 26.7668 74.7508 26.2663C74.681 25.7658 74.4643 25.2972 74.1283 24.9197C73.7923 24.5422 73.352 24.2727 72.8631 24.1452C72.3739 24.0177 71.8582 24.038 71.3806 24.2034C70.9031 24.3688 70.4853 24.672 70.18 25.0747C69.8745 25.4773 69.6954 25.9615 69.665 26.4659C69.6443 26.8022 69.6902 27.1392 69.8003 27.4576C69.9105 27.7759 70.0825 28.0694 70.3065 28.3211C70.5305 28.5728 70.8019 28.7776 71.1056 28.9239C71.409 29.0703 71.7385 29.1551 72.0748 29.1736Z" fill="white"/>
<path d="M72.0458 45.2771C72.7668 45.3168 73.4837 45.1417 74.1052 44.7743C74.7271 44.4069 75.2258 43.8632 75.5388 43.2125C75.8517 42.5614 75.9646 41.8325 75.8634 41.1174C75.7621 40.4023 75.4514 39.7334 74.9698 39.1949C74.4886 38.6565 73.8584 38.2728 73.1591 38.0925C72.46 37.9119 71.7228 37.9429 71.0409 38.1814C70.3594 38.4196 69.7634 38.8546 69.3289 39.4316C68.8944 40.0085 68.6406 40.7011 68.5997 41.4223C68.5723 41.9017 68.64 42.3817 68.7984 42.8352C68.9569 43.2885 69.2034 43.7063 69.5234 44.0642C69.8434 44.4223 70.2311 44.7137 70.6637 44.9217C71.0966 45.13 71.5661 45.2506 72.0458 45.2771Z" fill="white"/>
<path d="M52.2494 82.5718C52.8947 82.2469 53.4288 81.7377 53.7848 81.1091C54.1408 80.4805 54.3023 79.7601 54.2491 79.0398C54.1959 78.3192 53.93 77.6306 53.4854 77.0614C53.0408 76.4918 52.4374 76.0669 51.7513 75.8405C51.0654 75.614 50.3276 75.5958 49.6313 75.7888C48.935 75.9817 48.3116 76.3765 47.8399 76.9235C47.3679 77.4709 47.0688 78.1457 46.9805 78.8626C46.8922 79.5795 47.0187 80.3069 47.3436 80.9522C47.7796 81.8171 48.5414 82.4734 49.4611 82.7771C50.3811 83.0808 51.3839 83.0069 52.2494 82.5718Z" fill="white"/>
<path d="M74.4001 50.6055C73.6438 51.7612 73.2946 53.136 73.4075 54.5123C73.5201 55.8889 74.0891 57.1883 75.0232 58.2052C75.9577 59.2221 77.2044 59.8984 78.5666 60.1273C79.9284 60.3559 81.3278 60.124 82.5432 59.468C83.7586 58.812 84.7204 57.7695 85.2767 56.5055C85.8331 55.2415 85.9518 53.828 85.6146 52.4886C85.2774 51.1495 84.5032 49.9609 83.4143 49.111C82.3257 48.2612 80.9847 47.7987 79.6038 47.7969C78.5715 47.7966 77.5555 48.0532 76.6469 48.5436C75.7386 49.0338 74.9663 49.7424 74.4001 50.6055Z" fill="white"/>
<path d="M85.2091 76.5938C84.6559 75.495 83.7894 74.5851 82.7189 73.979C81.6485 73.3731 80.4223 73.0981 79.1959 73.1888C77.9691 73.2799 76.7971 73.7325 75.8276 74.4898C74.8583 75.247 74.1352 76.2747 73.7503 77.443C73.3651 78.611 73.3349 79.8673 73.6639 81.0525C73.9928 82.2378 74.666 83.299 75.598 84.1014C76.53 84.9042 77.6792 85.4122 78.9002 85.5618C80.1211 85.711 81.3589 85.495 82.4571 84.9408C83.1891 84.5768 83.8414 84.0713 84.3768 83.4534C84.9119 82.8356 85.3192 82.1181 85.5752 81.3418C85.8312 80.5654 85.9306 79.7461 85.8679 78.931C85.8048 78.1159 85.5811 77.3214 85.2091 76.5938Z" fill="white"/>
<path d="M96.0624 76.1608C95.4581 75.7645 94.7501 75.5565 94.0276 75.5626C93.3052 75.5688 92.6008 75.7891 92.0036 76.1956C91.4064 76.602 90.9433 77.1765 90.6725 77.8463C90.4018 78.5162 90.3356 79.2512 90.4827 79.9586C90.6295 80.666 90.983 81.3137 91.4981 81.8202C92.0135 82.3266 92.667 82.6691 93.3768 82.8042C94.0867 82.9389 94.8205 82.8605 95.4855 82.5783C96.1507 82.2962 96.7172 81.8232 97.1135 81.2192C97.3765 80.818 97.5581 80.3691 97.6476 79.8977C97.7375 79.4263 97.7332 78.942 97.6356 78.4722C97.5381 78.0023 97.3489 77.5565 97.079 77.1599C96.8089 76.7632 96.4636 76.4239 96.0624 76.1608Z" fill="white"/>
<path d="M70.2149 82.8332C70.9727 81.6763 71.3235 80.2997 71.2112 78.9212C71.0986 77.5428 70.5297 76.2412 69.5943 75.2224C68.6589 74.2037 67.4106 73.5261 66.0466 73.2969C64.6826 73.0677 63.2814 73.3 62.0641 73.9566C60.8472 74.6135 59.8838 75.6578 59.3269 76.9237C58.77 78.1898 58.6512 79.6052 58.9897 80.9464C59.3278 82.2874 60.1035 83.4772 61.1943 84.3277C62.2851 85.1781 63.6281 85.6406 65.0112 85.6418C66.0441 85.6458 67.0617 85.3911 67.9709 84.9003C68.8798 84.4098 69.6515 83.6991 70.2149 82.8332Z" fill="white"/>
<path d="M57.7915 92.3609C57.2777 92.0237 56.6755 91.8464 56.061 91.8517C55.4466 91.8569 54.8475 92.044 54.3395 92.3898C53.8315 92.7354 53.4374 93.224 53.2069 93.7935C52.9767 94.3634 52.9204 94.9886 53.0454 95.5901C53.1706 96.1917 53.4712 96.7428 53.9094 97.1735C54.3475 97.6043 54.9035 97.8954 55.5072 98.0101C56.1109 98.1246 56.7352 98.0578 57.3007 97.8175C57.8663 97.5775 58.3481 97.1751 58.685 96.6612C59.1364 95.9726 59.2961 95.1326 59.1284 94.3261C58.9611 93.5197 58.4801 92.8129 57.7915 92.3609Z" fill="white"/>
<path d="M72.303 88.1618C71.5817 88.1221 70.8654 88.2969 70.2436 88.6642C69.622 89.0316 69.1233 89.575 68.81 90.2258C68.4971 90.8765 68.3842 91.6055 68.4851 92.3205C68.5864 93.0356 68.8971 93.7045 69.378 94.243C69.8593 94.7815 70.4891 95.1652 71.1882 95.3461C71.8873 95.5267 72.6242 95.4959 73.306 95.2581C73.9879 95.0199 74.5836 94.5855 75.0187 94.0089C75.4534 93.4322 75.7076 92.7399 75.7491 92.019C75.7762 91.5393 75.7088 91.059 75.5504 90.6058C75.3919 90.1522 75.1454 89.7344 74.8254 89.3759C74.5054 89.0178 74.1177 88.7261 73.6851 88.5178C73.2522 88.3095 72.7827 88.1885 72.303 88.1618Z" fill="white"/>
<path d="M87.2494 92.1109C86.7023 92.389 86.25 92.8229 85.9494 93.3579C85.6484 93.893 85.5131 94.505 85.5598 95.117C85.6066 95.7287 85.8337 96.313 86.2121 96.7961C86.5909 97.2792 87.1038 97.6392 87.6869 97.8309C88.27 98.0226 88.8967 98.0373 89.4878 97.8733C90.0792 97.7093 90.6087 97.3736 91.0097 96.909C91.4106 96.4441 91.6647 95.8712 91.7401 95.2623C91.8158 94.6533 91.709 94.0355 91.434 93.4869C91.2503 93.121 90.9961 92.7949 90.6863 92.5275C90.3764 92.2604 90.0164 92.0567 89.6278 91.929C89.2389 91.801 88.8284 91.7512 88.4204 91.7826C88.0121 91.8136 87.6143 91.9253 87.2494 92.1109Z" fill="white"/>
</g>
</g>
<defs>
<filter id="filter0_d_888_342" x="0" y="0" width="108" height="108" filterUnits="userSpaceOnUse" color-interpolation-filters="sRGB">
<feFlood flood-opacity="0" result="BackgroundImageFix"/>
<feColorMatrix in="SourceAlpha" type="matrix" values="0 0 0 0 0 0 0 0 0 0 0 0 0 0 0 0 0 0 127 0" result="hardAlpha"/>
<feOffset dx="4" dy="4"/>
<feGaussianBlur stdDeviation="2"/>
<feComposite in2="hardAlpha" operator="out"/>
<feColorMatrix type="matrix" values="0 0 0 0 0 0 0 0 0 0 0 0 0 0 0 0 0 0 0.25 0"/>
<feBlend mode="normal" in2="BackgroundImageFix" result="effect1_dropShadow_888_342"/>
<feBlend mode="normal" in="SourceGraphic" in2="effect1_dropShadow_888_342" result="shape"/>
</filter>
</defs>
</svg>
