<svg width="270" height="63" viewBox="0 0 270 63" fill="none" xmlns="http://www.w3.org/2000/svg">
<path d="M187 0.606689V62.8748H104.88C108.221 57.1445 112.183 52.3643 116.167 46.907H142.388C136.995 38.1227 131.078 30.5734 125.665 21.8984C115.283 35.9539 106.486 49.5023 96.0056 63H74.3442C74.1995 62.8467 74.0829 62.6686 74 62.4745L75.3146 60.6069C78.0402 59.2242 80.3868 57.1921 82.1494 54.6883C83.9117 52.1844 85.0363 49.2852 85.4246 46.244L85.6017 45.9934C85.606 45.9986 85.6106 46.0034 85.6158 46.0075C85.8708 45.629 86.1284 45.2523 86.3889 44.8777C87.8423 42.7534 89.3281 40.6594 90.8178 38.5775L90.852 38.529C95.0051 32.7523 99.2448 27.0726 103.231 21.1646C105.912 17.0412 109.067 13.4777 111.676 9.29372C113.409 6.51252 115.648 4.36913 118.712 1.91847C119.801 1.04731 121.787 0.351747 123.592 0.104555C126.269 -0.262022 128.709 0.386535 131.536 1.25346C135.979 2.61545 137.064 5.28582 139.364 8.72596C148.865 22.0661 157.851 35.956 167.627 49.0172C168.555 34.3471 167.651 19.4627 167.965 4.70574C167.965 3.24641 167.522 1.61124 169.562 0.610728L187 0.606689Z" fill="white"/>
<path d="M260.998 30.2792C269.133 25.4404 268.106 18.6425 268.106 12.7571C268.106 6.87173 260.555 0.0433571 253.878 0.0433571C247.202 0.0433571 214.987 -0.0541963 203.53 0.0433571L190 16.2891C207.592 16.2891 225.204 16.3338 242.795 16.2505C245.545 16.2384 249.943 17.4699 249.943 21.2356C249.943 25.0015 245.984 24.4649 243.973 24.4527C226.339 24.3573 208.073 24.4284 190.397 24.4121V62.9944C207.626 62.9944 224.642 63.0188 241.657 62.966C264.387 62.966 270 56.6253 270 46.0616C270 35.498 260.973 31.0901 260.998 30.2792ZM243.298 46.7953C232.696 46.6713 222.093 46.7547 211.489 46.7344C210.86 46.7344 210.148 47.0269 209.5 46.3421V37.6035C220.638 37.6197 233.184 37.5649 244.243 37.6156C247.918 37.638 249.843 39.1622 250.946 42.8548C249.154 45.5008 246.739 46.8339 243.299 46.7953H243.298Z" fill="white"/>
<path d="M85.4934 39.69C84.0083 33.481 78.6293 27.8953 73.2236 26.4095C66.0542 24.7359 23.4704 25.0295 23.4704 25.0295C23.4704 25.0295 20.5331 23.6835 20.5331 20.606C20.5331 17.5286 23.2512 17.0393 23.2512 17.0393H70.5136C75.7861 12.5519 79.0143 6.58868 83.5392 1.26252C71.9658 0.797204 60.4457 1.08479 48.8684 1.12074C40.1095 1.26252 25.0436 1.25054 19.304 1.24055C17.4351 1.233 15.5882 1.63285 13.8983 2.41084C9.54956 4.41988 2.14875 9.30469 2.14875 19.2859C2.14875 33.4192 7.70396 34.204 13.7385 35.9115C16.7666 36.7483 19.9059 37.1393 23.0526 37.0718C31.8156 36.924 40.5825 36.992 49.3477 36.9939C51.3755 36.9939 53.404 36.9899 55.4334 36.982C58.7538 36.966 62.0291 36.958 65.0608 38.6215C66.214 39.5761 67.2341 40.0534 67.1707 42.4878C67.107 44.9223 66.171 45.1599 64.141 45.9946H12.9929C7.78385 50.7018 4.34872 56.4153 0 61.9471C19.2036 61.9471 37.8665 61.8593 56.5354 61.9991C58.4507 62.0131 62.2341 61.8633 62.2341 61.8633C62.2341 61.8633 72.986 61.7335 75.5587 60.4653C78.332 59.0992 80.7199 57.0914 82.5131 54.6175C84.3064 52.1436 85.4507 49.279 85.8456 46.2743C86.1341 44.075 86.0176 41.8433 85.5015 39.684L85.4934 39.69Z" fill="white"/>
</svg>
