<svg width="717" height="84" viewBox="0 0 717 84" fill="none" xmlns="http://www.w3.org/2000/svg">
<path d="M116.603 79.5073C114.286 83.0649 107.656 85.8918 89.2618 79.1371C88.3435 78.8005 87.4108 78.4399 86.4589 78.0697C85.6031 77.7284 84.7329 77.3726 83.8531 77.0024C82.9877 76.6419 82.1127 76.2621 81.2328 75.8678C74.0933 72.7236 66.3432 68.6852 58.4249 63.9881C55.1316 62.041 51.8142 59.9785 48.4921 57.815C45.1699 55.6516 41.9439 53.4545 38.8285 51.2285C31.3428 45.8872 24.5206 40.4353 18.7513 35.1757C18.0302 34.5267 17.3378 33.8777 16.6503 33.2334C15.9532 32.5796 15.2849 31.9257 14.6215 31.2815C13.8907 30.5652 13.1887 29.8488 12.506 29.1469C7.87137 24.3489 4.47229 19.9883 2.40977 16.1806C-0.989309 9.92585 -0.171992 6.2528 1.11168 4.28646C3.42901 0.723981 10.0589 -2.10292 28.4534 4.65185L30.8765 5.53646C28.0591 7.74799 25.4774 10.3249 23.2033 13.2479C17.1263 11.6422 15.0205 12.2864 14.8522 12.5508C14.6791 12.8153 14.9388 15.0076 18.8619 19.9066C19.3571 20.522 19.91 21.1854 20.5206 21.8921C21.0542 22.4931 21.6263 23.1325 22.2562 23.8008C22.309 23.8489 22.3523 23.9065 22.4052 23.9594C26.3091 28.1133 31.2851 32.6373 37.2323 37.344C42.1699 41.243 47.7805 45.2814 54.0114 49.3391C60.2422 53.3968 66.199 56.892 71.7616 59.8295C78.4732 63.3679 84.6175 66.0842 89.9974 67.9784C90.0743 68.0073 90.1416 68.0265 90.2089 68.0506C91.0743 68.3534 91.8916 68.6275 92.6561 68.8631C93.5503 69.1419 94.3724 69.3775 95.1417 69.5794C101.204 71.1852 103.32 70.5361 103.488 70.2717C103.666 70.0121 103.397 67.8198 99.4831 62.9208C101.228 59.6612 102.536 56.2574 103.425 52.7958L105.214 54.6324C109.853 59.4352 113.252 63.791 115.31 67.5986C118.709 73.8582 117.897 77.5217 116.608 79.4976L116.603 79.5073Z" fill="#E3A14D"/>
<path d="M100.531 43.2766C100.43 45.0073 100.228 46.7285 99.901 48.44C99.2616 51.8727 98.1702 55.2621 96.6173 58.5025C95.9731 59.8438 95.2567 61.1611 94.4538 62.4448C94.3 62.6996 94.1461 62.9544 93.973 63.2092C93.9634 63.2236 93.9538 63.2428 93.9394 63.2572C93.7855 63.4928 93.6269 63.7284 93.4682 63.9543C92.9826 63.8005 92.473 63.6226 91.9394 63.4399C86.9393 61.6803 81.4681 59.2621 75.6892 56.2813C69.6939 53.19 63.3621 49.4833 56.862 45.2477C50.3571 41.0074 44.3955 36.7141 39.1455 32.4882C34.0829 28.4016 29.6646 24.3776 26.0395 20.5171C25.6501 20.1084 25.2847 19.7142 24.9434 19.3296C25.0876 19.0892 25.2366 18.8584 25.3905 18.618C25.4001 18.6036 25.4097 18.5796 25.4241 18.5652C25.5924 18.3104 25.7607 18.0652 25.9289 17.82C26.7799 16.5652 27.6934 15.3729 28.6646 14.2527C31.0059 11.5123 33.6598 9.15174 36.5397 7.17579C37.9772 6.18541 39.4724 5.29599 41.0157 4.51715C53.6504 -1.94435 69.3045 -1.67032 82.0306 6.61329C94.7471 14.8969 101.334 29.1084 100.531 43.2766Z" fill="url(#paint0_linear_160_199)"/>
<path d="M74.9406 78.8294C62.9933 83.6178 48.9643 82.714 37.3776 75.1707C25.7909 67.6227 19.2957 55.1564 18.8438 42.2959C23.8967 46.6276 29.5314 51.017 35.6613 55.392C38.9546 57.7381 42.3536 60.0506 45.772 62.2814C49.2576 64.5458 52.7576 66.7189 56.1567 68.7333C62.6327 72.5746 68.9309 75.9592 74.9406 78.8294Z" fill="url(#paint1_linear_160_199)"/>
<path d="M10.0159 79.1897C13.7385 79.1897 16.7563 76.1719 16.7563 72.4493C16.7563 68.7267 13.7385 65.709 10.0159 65.709C6.2932 65.709 3.27539 68.7267 3.27539 72.4493C3.27539 76.1719 6.2932 79.1897 10.0159 79.1897Z" fill="#E3A14D"/>
<path d="M107.445 19.6176C110.474 19.6176 112.93 17.1616 112.93 14.132C112.93 11.1025 110.474 8.64648 107.445 8.64648C104.415 8.64648 101.959 11.1025 101.959 14.132C101.959 17.1616 104.415 19.6176 107.445 19.6176Z" fill="#E3A14D"/>
<path d="M134.85 53.966C134.85 52.9853 135.378 52.4516 136.364 52.4516H140.754C141.739 52.4516 142.268 52.9804 142.268 53.966C142.648 60.9996 145.292 63.2737 152.783 63.2737H167.235C175.48 63.2737 178.283 61.3843 178.283 55.2545C178.283 49.1247 175.485 48.1439 168.297 47.6151L151.73 46.2545C140.08 45.3459 135.239 42.0911 135.239 32.1825C135.239 22.2739 139.931 17.0527 153.624 17.0527H166.941C179.576 17.0527 184.418 22.1969 184.869 33.543C184.869 34.5286 184.341 35.0575 183.355 35.0575H178.966C177.98 35.0575 177.451 34.5286 177.451 33.543C177.071 26.5094 174.427 24.2354 166.937 24.2354H153.696C145.297 24.2354 142.576 26.0527 142.576 32.2546C142.576 38.0046 145.302 39.1392 152.489 39.7449L169.057 41.0286C180.634 41.9372 185.624 45.418 185.624 55.2497C185.624 65.0814 180.932 70.4563 167.239 70.4563H152.787C140.153 70.4563 135.311 65.3121 134.859 53.9612L134.85 53.966Z" fill="#E3A14D"/>
<path d="M263.47 68.9427V24.2314H245.239C244.253 24.2314 243.725 23.7026 243.725 22.717V18.5584C243.725 17.5728 244.253 17.0439 245.239 17.0439H289.196C290.182 17.0439 290.711 17.5728 290.711 18.5584V22.717C290.711 23.7026 290.182 24.2314 289.196 24.2314H270.965V68.9427C270.965 69.9283 270.436 70.4571 269.451 70.4571H264.989C264.004 70.4571 263.475 69.9283 263.475 68.9427H263.47Z" fill="#E3A14D"/>
<path d="M297.062 52.0726V18.5584C297.062 17.5728 297.591 17.0439 298.577 17.0439H302.966C303.952 17.0439 304.481 17.5728 304.481 18.5584V52.2986C304.481 60.8466 307.433 63.2697 314.995 63.2697H331.337C338.904 63.2697 341.779 60.8466 341.779 52.2986V18.5584C341.779 17.5728 342.308 17.0439 343.294 17.0439H347.76C348.741 17.0439 349.275 17.5728 349.275 18.5584V52.0726C349.275 63.7985 344.279 70.4571 331.347 70.4571H315.005C301.99 70.4571 297.072 63.7985 297.072 52.0726H297.062Z" fill="#E3A14D"/>
<path d="M417.134 68.9427V18.5584C417.134 17.5728 417.663 17.0439 418.648 17.0439H423.413C424.167 17.0439 424.85 17.3468 425.302 17.9526L459.726 59.6399V18.5584C459.726 17.5728 460.254 17.0439 461.24 17.0439H465.629C466.615 17.0439 467.144 17.5728 467.144 18.5584V68.9427C467.144 69.9283 466.615 70.4571 465.629 70.4571H460.711C459.956 70.4571 459.274 70.1543 458.822 69.5485L424.547 28.0872V68.9427C424.547 69.9283 424.018 70.4571 423.033 70.4571H418.643C417.658 70.4571 417.129 69.9283 417.129 68.9427H417.134Z" fill="#E3A14D"/>
<path d="M495.59 68.9427V18.5584C495.59 17.5728 496.119 17.0439 497.104 17.0439H501.494C502.479 17.0439 503.008 17.5728 503.008 18.5584V63.2697H537.432C538.412 63.2697 538.946 63.7985 538.946 64.7841V68.9475C538.946 69.9331 538.417 70.462 537.432 70.462H497.104C496.119 70.462 495.59 69.9331 495.59 68.9475V68.9427Z" fill="white"/>
<path d="M665.227 53.966C665.227 52.9853 665.755 52.4516 666.741 52.4516H671.13C672.116 52.4516 672.645 52.9804 672.645 53.966C673.025 60.9996 675.669 63.2737 683.159 63.2737H697.612C705.857 63.2737 708.66 61.3843 708.66 55.2545C708.66 49.1247 705.862 48.1439 698.674 47.6151L682.107 46.2545C670.457 45.3459 665.616 42.0911 665.616 32.1825C665.616 22.2739 670.308 17.0527 684.001 17.0527H697.318C709.953 17.0527 714.794 22.1969 715.246 33.543C715.246 34.5286 714.718 35.0575 713.732 35.0575H709.342C708.357 35.0575 707.828 34.5286 707.828 33.543C707.448 26.5094 704.804 24.2354 697.314 24.2354H684.073C675.674 24.2354 672.953 26.0527 672.953 32.2546C672.953 38.0046 675.679 39.1392 682.866 39.7449L699.434 41.0286C711.011 41.9372 716.001 45.418 716.001 55.2497C716.001 65.0814 711.309 70.4563 697.616 70.4563H683.164C670.53 70.4563 665.688 65.3121 665.236 53.9612L665.227 53.966Z" fill="white"/>
<path d="M249.245 68.6437L223.446 18.1055C223.066 17.3507 222.538 17.0479 221.706 17.0479H216.408C215.576 17.0479 215.047 17.3507 214.667 18.1055L188.792 68.6437C188.263 69.7014 188.792 70.4611 189.927 70.4611H194.994C195.826 70.4611 196.355 70.1582 196.734 69.4034L201.35 60.3265H232.908L229.687 53.9707H204.528L219.129 25.0719L231.99 50.7929L237.889 62.5669L241.297 69.3312C241.677 70.086 242.206 70.4659 243.038 70.4659H248.105C249.24 70.4659 249.769 69.7111 249.24 68.6486L249.245 68.6437Z" fill="#E3A14D"/>
<path d="M604.09 68.6437L578.292 18.1055C577.912 17.3507 577.383 17.0479 576.552 17.0479H571.253C570.422 17.0479 569.893 17.3507 569.513 18.1055L543.638 68.6437C543.109 69.7014 543.638 70.4611 544.772 70.4611H549.84C550.671 70.4611 551.2 70.1582 551.58 69.4034L556.196 60.3265H587.754L584.532 53.9707H559.378L573.979 25.0719L587.229 51.5765L593.129 63.3553L596.143 69.3312C596.523 70.086 597.052 70.4659 597.883 70.4659H602.951C604.086 70.4659 604.614 69.7111 604.085 68.6486L604.09 68.6437Z" fill="white"/>
<path d="M651.682 43.5237C654.783 42.0093 658.264 39.591 658.264 32.1776V31.4228C658.187 21.6632 653.043 17.0479 640.259 17.0479H605.811C604.826 17.0479 604.297 17.5767 604.297 18.5623V24.2353H639.879C647.37 24.2353 650.624 26.2017 650.624 32.0286V33.0862C650.624 38.6102 647.523 40.1968 641.773 40.1968H617.186V27.8555H609.773V68.9466C609.773 69.9322 610.302 70.4611 611.287 70.4611H640.793C653.576 70.4611 658.649 66.0716 658.649 56.389V55.7063C658.649 47.99 654.865 45.0381 651.687 43.5237H651.682ZM651.076 55.7063C651.076 61.5332 647.821 63.3457 640.408 63.3457H617.182V46.7785H641.999C647.898 46.7785 651.076 49.0477 651.076 54.7207V55.7063Z" fill="white"/>
<path d="M409.185 36.414V35.5054C409.185 22.8708 403.887 17.0439 388.002 17.0439H360.612C359.626 17.0439 359.098 17.5728 359.098 18.5584V24.2314H387.545C398.214 24.2314 401.694 26.2747 401.694 35.5775V36.3323C401.694 45.4861 398.137 47.4524 387.545 47.4524H366.511V27.8468H359.098V68.9379C359.098 69.9235 359.626 70.4523 360.612 70.4523H365.002C365.987 70.4523 366.516 69.9235 366.516 68.9379V54.563H389.29L399.43 69.4668C399.882 70.1495 400.488 70.4523 401.247 70.4523H406.468C407.68 70.4523 408.132 69.6206 407.454 68.6351L397.088 53.8082C406.166 51.9188 409.194 46.0919 409.194 36.4092L409.185 36.414Z" fill="#E3A14D"/>
<defs>
<linearGradient id="paint0_linear_160_199" x1="41.9003" y1="0.839283" x2="99.2462" y2="58.1861" gradientUnits="userSpaceOnUse">
<stop stop-color="#94E5FF"/>
<stop offset="1" stop-color="#0091E9"/>
</linearGradient>
<linearGradient id="paint1_linear_160_199" x1="19.839" y1="41.3007" x2="66.1512" y2="87.6186" gradientUnits="userSpaceOnUse">
<stop stop-color="#94E5FF"/>
<stop offset="1" stop-color="#0091E9"/>
</linearGradient>
</defs>
</svg>
