<svg width="460" height="82" viewBox="0 0 460 82" fill="none" xmlns="http://www.w3.org/2000/svg">
<path fill-rule="evenodd" clip-rule="evenodd" d="M70.9381 4.11334C77.9783 1.33638 82.513 3.36414 93.8777 14.6547L94.6543 15.43C107.294 28.1029 109.934 32.021 110.508 38.9524L110.546 39.4686C111.044 47.1456 108.101 51.961 95.3551 64.53L93.3596 66.4864C81.8652 77.6973 79.0098 79.2916 71.3891 77.3723C68.1785 76.5637 65.5104 74.6313 62.4151 71.4616L62.0416 71.0753L57.4396 65.7907L81.8585 41.0593L68.4071 27.2572C62.516 21.2507 57.7078 16.5886 57.4123 16.6156L57.3945 16.6197V16.5527L57.4087 16.5687L62.9426 10.4372C65.8993 7.52771 69.498 4.68101 70.9381 4.11334Z" fill="url(#paint0_linear_824_1114)"/>
<path fill-rule="evenodd" clip-rule="evenodd" d="M70.9381 4.11334C77.9783 1.33638 82.513 3.36414 93.8777 14.6547L94.6543 15.43C98.34 20.8723 94.0747 29.4155 81.8585 41.0593L68.4071 27.2572C62.516 21.2507 57.7078 16.5886 57.4123 16.6156L57.3945 16.6197V16.5527L57.4087 16.5687L62.9426 10.4372C65.8993 7.5277 69.498 4.68101 70.9381 4.11334Z" fill="url(#paint1_linear_824_1114)"/>
<path fill-rule="evenodd" clip-rule="evenodd" d="M39.6596 77.3007C32.6193 80.0777 28.0847 78.0499 16.72 66.7593L15.9434 65.9841C3.30396 53.3112 0.663593 49.393 0.0896454 42.4617L0.0514259 41.9455C-0.446449 34.2684 2.49669 29.453 15.2426 16.8841L17.238 14.9276C28.7325 3.71673 31.5879 2.1225 39.2086 4.04172C42.4191 4.8504 45.0873 6.78271 48.1826 9.95248L48.5561 10.3388L53.1581 15.6233L28.7391 40.3547L42.1906 54.1569C48.0816 60.1634 52.8899 64.8255 53.1853 64.7985L53.2031 64.7943V64.8614L53.1889 64.8453L47.655 70.9768C44.6984 73.8864 41.0997 76.7331 39.6596 77.3007Z" fill="url(#paint2_linear_824_1114)"/>
<path fill-rule="evenodd" clip-rule="evenodd" d="M39.6596 77.3007C32.6193 80.0777 28.0847 78.0499 16.72 66.7593L15.9434 65.9841C12.2577 60.5417 16.5229 51.9986 28.7391 40.3547L42.1906 54.1569C48.0816 60.1634 52.8899 64.8255 53.1853 64.7985L53.2031 64.7943V64.8614L53.1889 64.8453L47.655 70.9768C44.6984 73.8864 41.0997 76.7331 39.6596 77.3007Z" fill="url(#paint3_linear_824_1114)"/>
<path d="M148.012 25.1662V16.5455H188.629V25.1662H173.488V66H163.153V25.1662H148.012ZM202.271 28.9091L209.081 41.8764L216.06 28.9091H226.612L215.867 47.4545L226.902 66H216.398L209.081 53.1776L201.885 66H191.26L202.271 47.4545L191.646 28.9091H202.271ZM233.391 66V16.5455H252.902C256.653 16.5455 259.849 17.2618 262.489 18.6946C265.129 20.1113 267.141 22.0833 268.526 24.6108C269.926 27.1222 270.627 30.0199 270.627 33.304C270.627 36.5881 269.918 39.4858 268.502 41.9972C267.085 44.5085 265.032 46.4645 262.344 47.8651C259.672 49.2656 256.436 49.9659 252.637 49.9659H240.201V41.5866H250.946C252.959 41.5866 254.617 41.2405 255.921 40.5483C257.241 39.84 258.223 38.866 258.867 37.6264C259.527 36.3707 259.857 34.9299 259.857 33.304C259.857 31.6619 259.527 30.2292 258.867 29.0057C258.223 27.7661 257.241 26.8082 255.921 26.1321C254.601 25.4399 252.926 25.0938 250.898 25.0938H243.847V66H233.391ZM277.701 66V28.9091H287.988V66H277.701ZM282.869 24.1278C281.339 24.1278 280.027 23.6207 278.933 22.6065C277.854 21.5762 277.315 20.3447 277.315 18.9119C277.315 17.4953 277.854 16.2798 278.933 15.2656C280.027 14.2353 281.339 13.7202 282.869 13.7202C284.398 13.7202 285.702 14.2353 286.781 15.2656C287.875 16.2798 288.423 17.4953 288.423 18.9119C288.423 20.3447 287.875 21.5762 286.781 22.6065C285.702 23.6207 284.398 24.1278 282.869 24.1278ZM296.704 79.9091V28.9091H306.846V35.1392H307.305C307.756 34.1411 308.408 33.1269 309.261 32.0966C310.131 31.0502 311.257 30.1809 312.642 29.4886C314.043 28.7803 315.781 28.4261 317.858 28.4261C320.562 28.4261 323.058 29.1345 325.344 30.5511C327.63 31.9517 329.457 34.0687 330.825 36.902C332.194 39.7192 332.878 43.2528 332.878 47.5028C332.878 51.6402 332.21 55.1335 330.873 57.983C329.553 60.8163 327.75 62.9654 325.464 64.4304C323.194 65.8793 320.651 66.6037 317.834 66.6037C315.837 66.6037 314.139 66.2737 312.739 65.6136C311.354 64.9536 310.219 64.1245 309.334 63.1264C308.448 62.1122 307.772 61.09 307.305 60.0597H306.991V79.9091H296.704ZM306.774 47.4545C306.774 49.66 307.08 51.5838 307.692 53.2259C308.303 54.8679 309.189 56.1477 310.348 57.0653C311.507 57.9669 312.916 58.4176 314.574 58.4176C316.248 58.4176 317.665 57.9588 318.824 57.0412C319.983 56.1075 320.86 54.8196 321.456 53.1776C322.068 51.5194 322.373 49.6117 322.373 47.4545C322.373 45.3134 322.076 43.4299 321.48 41.804C320.884 40.178 320.007 38.9062 318.848 37.9886C317.689 37.071 316.264 36.6122 314.574 36.6122C312.9 36.6122 311.483 37.0549 310.324 37.9403C309.181 38.8258 308.303 40.0814 307.692 41.7074C307.08 43.3333 306.774 45.2491 306.774 47.4545ZM357.115 66.7244C353.3 66.7244 350.016 65.9517 347.263 64.4062C344.526 62.8447 342.417 60.6392 340.936 57.7898C339.455 54.9242 338.715 51.5355 338.715 47.6236C338.715 43.8082 339.455 40.4598 340.936 37.5781C342.417 34.6965 344.502 32.4508 347.19 30.8409C349.895 29.2311 353.066 28.4261 356.705 28.4261C359.152 28.4261 361.429 28.8205 363.538 29.6094C365.663 30.3821 367.515 31.5492 369.092 33.1108C370.686 34.6723 371.926 36.6364 372.811 39.0028C373.697 41.3532 374.139 44.1061 374.139 47.2614V50.0866H342.82V43.7116H364.456C364.456 42.2306 364.134 40.9186 363.49 39.7756C362.846 38.6326 361.953 37.7391 360.81 37.0952C359.683 36.4351 358.371 36.1051 356.874 36.1051C355.312 36.1051 353.928 36.4673 352.72 37.1918C351.529 37.9001 350.595 38.858 349.919 40.0653C349.243 41.2566 348.897 42.5848 348.881 44.0497V50.1108C348.881 51.946 349.219 53.5317 349.895 54.8679C350.587 56.2041 351.561 57.2344 352.817 57.9588C354.072 58.6832 355.562 59.0455 357.284 59.0455C358.427 59.0455 359.474 58.8845 360.423 58.5625C361.373 58.2405 362.186 57.7576 362.862 57.1136C363.538 56.4697 364.054 55.6809 364.408 54.7472L373.922 55.375C373.439 57.661 372.449 59.6572 370.952 61.3636C369.471 63.054 367.555 64.3741 365.205 65.3239C362.87 66.2576 360.174 66.7244 357.115 66.7244ZM387.341 66.6278C385.747 66.6278 384.379 66.0644 383.236 64.9375C382.109 63.7945 381.546 62.4261 381.546 60.8324C381.546 59.2547 382.109 57.9025 383.236 56.7756C384.379 55.6487 385.747 55.0852 387.341 55.0852C388.887 55.0852 390.239 55.6487 391.398 56.7756C392.557 57.9025 393.137 59.2547 393.137 60.8324C393.137 61.8949 392.863 62.8688 392.316 63.7543C391.784 64.6236 391.084 65.3239 390.215 65.8551C389.345 66.3703 388.387 66.6278 387.341 66.6278ZM402.058 66V28.9091H412.345V66H402.058ZM407.226 24.1278C405.696 24.1278 404.384 23.6207 403.29 22.6065C402.211 21.5762 401.672 20.3447 401.672 18.9119C401.672 17.4953 402.211 16.2798 403.29 15.2656C404.384 14.2353 405.696 13.7202 407.226 13.7202C408.755 13.7202 410.059 14.2353 411.138 15.2656C412.232 16.2798 412.78 17.4953 412.78 18.9119C412.78 20.3447 412.232 21.5762 411.138 22.6065C410.059 23.6207 408.755 24.1278 407.226 24.1278ZM437.82 66.7244C434.069 66.7244 430.825 65.9276 428.089 64.3338C425.368 62.724 423.267 60.4863 421.786 57.6207C420.305 54.7391 419.564 51.3987 419.564 47.5994C419.564 43.768 420.305 40.4195 421.786 37.554C423.267 34.6723 425.368 32.4347 428.089 30.8409C430.825 29.2311 434.069 28.4261 437.82 28.4261C441.571 28.4261 444.807 29.2311 447.527 30.8409C450.264 32.4347 452.373 34.6723 453.854 37.554C455.335 40.4195 456.076 43.768 456.076 47.5994C456.076 51.3987 455.335 54.7391 453.854 57.6207C452.373 60.4863 450.264 62.724 447.527 64.3338C444.807 65.9276 441.571 66.7244 437.82 66.7244ZM437.868 58.7557C439.575 58.7557 441 58.2727 442.143 57.3068C443.286 56.3248 444.147 54.9886 444.726 53.2983C445.322 51.608 445.62 49.6842 445.62 47.527C445.62 45.3698 445.322 43.446 444.726 41.7557C444.147 40.0653 443.286 38.7292 442.143 37.7472C441 36.7652 439.575 36.2741 437.868 36.2741C436.146 36.2741 434.697 36.7652 433.522 37.7472C432.363 38.7292 431.485 40.0653 430.89 41.7557C430.31 43.446 430.02 45.3698 430.02 47.527C430.02 49.6842 430.31 51.608 430.89 53.2983C431.485 54.9886 432.363 56.3248 433.522 57.3068C434.697 58.2727 436.146 58.7557 437.868 58.7557Z" fill="white"/>
<defs>
<linearGradient id="paint0_linear_824_1114" x1="75.068" y1="61.6797" x2="101.447" y2="49.1086" gradientUnits="userSpaceOnUse">
<stop stop-color="#FF0065"/>
<stop offset="1" stop-color="#DD61FC"/>
</linearGradient>
<linearGradient id="paint1_linear_824_1114" x1="76.6651" y1="20.2029" x2="93.1452" y2="22.0756" gradientUnits="userSpaceOnUse">
<stop stop-color="#B10151"/>
<stop offset="1" stop-color="#750126"/>
</linearGradient>
<linearGradient id="paint2_linear_824_1114" x1="35.2765" y1="18.2241" x2="13.6888" y2="30.101" gradientUnits="userSpaceOnUse">
<stop stop-color="#80F3FD"/>
<stop offset="1" stop-color="#00D0FF"/>
</linearGradient>
<linearGradient id="paint3_linear_824_1114" x1="40.742" y1="59.3844" x2="23.628" y2="55.0678" gradientUnits="userSpaceOnUse">
<stop stop-color="#0080BB"/>
<stop offset="1" stop-color="#004985"/>
</linearGradient>
</defs>
</svg>
