<svg width="38" height="33" viewBox="0 0 38 33" fill="none" xmlns="http://www.w3.org/2000/svg">
<path d="M2.11111 33L35.8889 33C37.05 33 38 31.7625 38 30.25C38 28.7375 37.05 27.5 35.8889 27.5L2.11111 27.5C0.949995 27.5 -5.02462e-06 28.7375 -5.28908e-06 30.25C-5.55353e-06 31.7625 0.949994 33 2.11111 33ZM2.11111 19.25L35.8889 19.25C37.05 19.25 38 18.0125 38 16.5C38 14.9875 37.05 13.75 35.8889 13.75L2.11111 13.75C0.949998 13.75 -2.6205e-06 14.9875 -2.88495e-06 16.5C-3.1494e-06 18.0125 0.949997 19.25 2.11111 19.25ZM-4.80825e-07 2.75C-7.45279e-07 4.2625 0.949999 5.5 2.11111 5.5L35.8889 5.5C37.05 5.50001 38 4.26251 38 2.75001C38 1.23751 37.05 6.47803e-06 35.8889 6.27501e-06L2.11111 3.69118e-07C0.95 1.66103e-07 -2.16371e-07 1.2375 -4.80825e-07 2.75Z" fill="white"/>
<path d="M2.11111 33L35.8889 33C37.05 33 38 31.7625 38 30.25C38 28.7375 37.05 27.5 35.8889 27.5L2.11111 27.5C0.949995 27.5 -5.02462e-06 28.7375 -5.28908e-06 30.25C-5.55353e-06 31.7625 0.949994 33 2.11111 33ZM2.11111 19.25L35.8889 19.25C37.05 19.25 38 18.0125 38 16.5C38 14.9875 37.05 13.75 35.8889 13.75L2.11111 13.75C0.949998 13.75 -2.6205e-06 14.9875 -2.88495e-06 16.5C-3.1494e-06 18.0125 0.949997 19.25 2.11111 19.25ZM-4.80825e-07 2.75C-7.45279e-07 4.2625 0.949999 5.5 2.11111 5.5L35.8889 5.5C37.05 5.50001 38 4.26251 38 2.75001C38 1.23751 37.05 6.47803e-06 35.8889 6.27501e-06L2.11111 3.69118e-07C0.95 1.66103e-07 -2.16371e-07 1.2375 -4.80825e-07 2.75Z" stroke="#114661"/>
</svg>
